<?xml version="1.0" encoding="utf-8"?>
<!-- Generator: Adobe Illustrator 19.1.1, SVG Export Plug-In . SVG Version: 6.00 Build 0)  -->
<svg version="1.1" id="Warstwa_1" xmlns="http://www.w3.org/2000/svg" xmlns:xlink="http://www.w3.org/1999/xlink" x="0px" y="0px"
	 viewBox="0 0 1920 460" style="enable-background:new 0 0 1920 460;" xml:space="preserve">
<style type="text/css">
	.st0{fill:#E30613;stroke:#E30613;stroke-miterlimit:10;}
</style>
<g>
	<path class="st0" d="M1792.5,175.6c-16.7,0-25.5,3.1-35.3,13.8l16.3,15.5c5.2-5.9,8.7-8.3,18.3-8.3c13.3,0,17.7,4.8,17.7,15.7v7
		h-21.4c-23.2,0-34.2,12.1-34.2,28c0,8.8,2.9,16.4,8.3,22c6,5.9,12.8,8.6,24.1,8.6c11.5,0,18.2-3.1,23.2-9.9v9.3h24V211
		C1833.5,187.6,1820.5,175.6,1792.5,175.6z M1809.5,240c0,6.1,0.1,10.2-2.5,12.7c-4.4,4.2-8.3,4.8-15.2,4.8
		c-9.8,0-14.1-2.2-14.1-9.1c0-7.1,5.3-8.9,14.3-8.9h17.6V240z"/>
</g>
<rect x="1708.5" y="181.5" class="st0" width="24" height="96"/>
<rect x="1708.5" y="143.5" class="st0" width="24" height="19"/>
<path class="st0" d="M1655.5,185.6c-10-7.3-14.3-10-24.5-10c-9.8,0-18.9,3.5-24.5,9c-10,10-10.2,27.1-10.2,42.1
	c0,15,0.2,32.3,10.2,42.2c5.6,5.6,14.6,9,24.4,9c10.6,0,14.6-2.9,24.6-10.6v10.1h24v-134h-24V185.6z M1638.1,255.5
	c-15,0-16.9-12.5-16.9-28.8c0-16.3,1.9-28.6,16.9-28.6c15,0,17.1,12.3,17.1,28.6C1655.2,243,1653.1,255.5,1638.1,255.5z"/>
<path class="st0" d="M1531.9,175.6c-25.9,0-42.6,18.4-42.6,51.1c0,40.5,23.2,51.3,46.8,51.3c18,0,28.1-5.6,38.3-15.7l-15.1-14.8
	c-6.3,6.3-11.6,11.9-22.6,11.9c-14,0-21.8-10.8-21.8-19.8h58.6v-16C1573.5,196,1559.7,175.6,1531.9,175.6z M1514.9,219.5
	c0.2-4,0.8-8.1,2.3-11.8c2.7-5.9,8.3-10.9,16.7-10.9c8.5,0,14,5.2,16.7,11.1c1.5,3.7,2.1,7.5,2.3,11.5H1514.9z"/>
<path class="st0" d="M1468.4,276.8v-63.9c0-10.9-2.9-20.4-10.9-28.4c-5.6-5.6-14.6-8.8-24.6-8.8c-12.5,0-21.5,3.8-30,12.7
	c-6.3-8.6-15.4-12.7-26.5-12.7c-9.2,0-18.4,3.7-25,10.4v-9.2h-24.4v100h25v-60.5c0-13.6,8.8-18.2,16.7-18.2
	c7.9,0,16.5,4.6,16.5,18.2v60.5h25v-61.1c0-13.1,9-17.7,16.7-17.7c7.9,0,16.5,4.6,16.5,18.2v60.5H1468.4z"/>
<path class="st0" d="M1120.5,360.2c9.2,2,18.7,3.1,28.5,3.1c5.1,0,10.2-0.4,15.1-0.9l-16.6-18.2C1141,349,1132.6,355.4,1120.5,360.2
	 M1038.4,227c-6.4-6.7-14.3-15.4-19.9-26.2c-2,9.3-3.2,18.9-3.2,28.8c0,4.6,0.2,9.1,0.7,13.6C1023,237,1030.7,231.6,1038.4,227
	 M1083.1,155.7c-14.6,0-22.1,8.6-22.1,20.1c0,9,8.3,17.6,17.6,27.7c3.8-2.1,11.3-6.9,11.3-6.9c8.6-5.5,15.4-12.1,15.4-20.8
	C1105.2,164.4,1097,155.7,1083.1,155.7 M1118,312.4l-53.3-57.8c-16.1,10.4-27,20.1-27,37.7c0,20.4,18,34.6,40.6,34.6
	C1094,327,1105.6,322.5,1118,312.4 M1282.8,229.6c0-73.9-59.9-133.8-133.8-133.8c-27.1,0-52.3,8.1-73.4,22c2.5-0.2,4.8-0.5,7.4-0.5
	c42.1,0,68.3,24.6,68.3,58.1c0,19-10.9,31.8-27.4,42.9c0,0-12.4,8.7-19.1,12.8l45.1,49.1c8.6-10.7,12.8-25.6,13.5-43.2h46.2
	c-1.9,31.8-9.8,57.1-28.5,76.5l31.3,34C1254.3,324.9,1282.8,280.6,1282.8,229.6"/>
<g>
	<path class="st0" d="M940.5,181.5v4.7c-10-7.7-13.7-10.6-24.3-10.6c-9.8,0-18.4,3.3-23.9,8.8c-9.4,9.4-10.1,22.1-10.1,39.6
		c0,17.5,0.8,30.3,10.2,39.7c5.6,5.6,14.3,8.8,24.1,8.8c9.8,0,14.1-2.7,24.1-10v10.2c0,10.2-5.4,20.7-20.4,20.7
		c-8.5,0-14.1-2.3-19.7-7.7l-15.6,15.7c10.4,10,20.7,13.1,36,13.1c26.9,0,43.7-17.5,43.7-41.5v-91.7H940.5z M923.5,250.1
		c-14.8,0-16.3-12.9-16.3-26.1s1.5-25.9,16.3-25.9S940,210.8,940,224S938.3,250.1,923.5,250.1z"/>
</g>
<path class="st0" d="M826.1,175.6c-9.2,0-20.6,3.5-24.6,10.4v-4.5h-29v96h29v-61.1c0-13.6,8.7-18.2,16.6-18.2
	c7.9,0,16.4,4.6,16.4,18.2v61.1h24v-64.6c0-10.9-1.4-20.4-9.5-28.4C843.5,178.9,836.1,175.6,826.1,175.6z"/>
<rect x="719.5" y="143.5" class="st0" width="29" height="19"/>
<rect x="719.5" y="181.5" class="st0" width="29" height="96"/>
<path class="st0" d="M681.5,152.5h-24v29h-10v19h10v47.7c0,14.2,9.4,29.3,29.8,29.3h13.2v-19h-8.6c-6,0-10.4-6.1-10.4-11.8v-46.2h19
	v-19h-19V152.5z"/>
<path class="st0" d="M589.6,175.6c-25.9,0-43.7,18.4-43.7,51.1c0,40.5,22.6,51.3,46.2,51.3c18.1,0,27.8-5.6,38-15.7l-15.2-14.8
	c-6.3,6.3-11.7,11.9-22.7,11.9c-14,0-21.9-10.8-21.9-19.8h63.1v-16C633.5,196,617.5,175.6,589.6,175.6z M570.4,219.5
	c0.2-4,0.8-8.1,2.3-11.8c2.7-5.9,8.3-10.9,16.7-10.9c8.4,0,14,5.2,16.7,11.1c1.5,3.7,2.1,7.5,2.3,11.5H570.4z"/>
<polygon class="st0" points="533.1,181.5 503,181.5 469.5,217.7 469.5,143.5 441.5,143.5 441.5,277.5 469.5,277.5 469.5,247.1 
	480.2,235.5 504.9,277.5 535.8,277.5 497.4,219.8 "/>
<path class="st0" d="M378.5,186.4v-4.9h-24v96h24v-61c0-12.7,10.4-18.4,18.1-18.4c6.1,0,10.4,2.1,14.2,5.9l19.3-19
	c-6.9-6.9-15.2-9.4-25-9.4C394.3,175.6,383.5,180.6,378.5,186.4z"/>
<path class="st0" d="M287.9,175.6c-16.7,0-26.3,3.1-36.1,13.8l15.9,15.5c5.2-5.9,7.6-8.3,17.2-8.3c13.3,0,16.6,4.8,16.6,15.7v7H282
	c-23.2,0-34.2,12.1-34.2,28c0,8.8,2.9,16.4,8.3,22c6,5.9,14.4,8.6,25.7,8.6c11.5,0,15.8-3.1,24.8-9.9v9.3h24V211
	C330.5,187.6,315.9,175.6,287.9,175.6z M301.5,240c0,6.1,1.1,10.2-1.6,12.7c-4.4,4.2-7.8,4.8-14.7,4.8c-9.8,0-13.9-2.2-13.9-9.1
	c0-7.1,5.5-8.9,14.5-8.9h15.7V240z"/>
<path class="st0" d="M228,276.8v-63.9c0-10.9-2.9-20.4-10.9-28.4c-5.6-5.6-14.6-8.8-24.6-8.8c-12.5,0-21.5,3.8-30,12.7
	c-6.3-8.6-15.4-12.7-26.5-12.7c-9.2,0-18.4,3.7-25,10.4v-9.2H86.7v100h25v-60.5c0-13.6,8.8-18.2,16.7-18.2s16.5,4.6,16.5,18.2v60.5
	h25v-61.1c0-13.1,9-17.7,16.7-17.7c7.9,0,16.5,4.6,16.5,18.2v60.5H228z"/>
</svg>
