<?xml version="1.0" encoding="utf-8"?>
<!-- Generator: Adobe Illustrator 19.1.1, SVG Export Plug-In . SVG Version: 6.00 Build 0)  -->
<svg version="1.1" id="Warstwa_1" xmlns="http://www.w3.org/2000/svg" xmlns:xlink="http://www.w3.org/1999/xlink" x="0px" y="0px"
	 viewBox="0 0 200 200" style="enable-background:new 0 0 200 200;" xml:space="preserve">
<style type="text/css">
	.st0{fill:#ED1C24;}
</style>
<path class="st0" d="M78.4,197.7c6.9,1.5,14,2.3,21.3,2.3c3.8,0,7.6-0.3,11.3-0.7l-12.4-13.6C93.7,189.3,87.5,194,78.4,197.7 M17,98
	c-4.8-5-10.7-11.5-14.9-19.6C0.6,85.4-0.3,92.6-0.3,100c0,3.4,0.2,6.8,0.5,10.2C5.5,105.6,11.3,101.5,17,98 M50.4,44.8
	c-10.9,0-16.6,6.5-16.6,15C33.8,66.5,40,73,47,80.5c2.8-1.6,8.4-5.2,8.4-5.2c6.5-4.1,11.5-9,11.5-15.5C67,51.2,60.8,44.8,50.4,44.8
	 M76.5,161.9l-39.9-43.2c-12.1,7.8-20.2,15-20.2,28.2c0,15.3,13.5,25.9,30.3,25.9C58.5,172.8,67.2,169.4,76.5,161.9 M199.7,100
	c0-55.2-44.8-100-100-100C79.5,0,60.7,6.1,44.9,16.4c1.8-0.1,3.6-0.4,5.5-0.4c31.4,0,51.1,18.4,51.1,43.5c0,14.2-8.1,23.8-20.5,32.1
	c0,0-9.3,6.5-14.3,9.6l33.7,36.7c6.5-8,9.5-19.1,10.1-32.3H145c-1.4,23.8-7.3,42.7-21.3,57.2l23.4,25.4
	C178.4,171.2,199.7,138.1,199.7,100"/>
</svg>
