<?xml version="1.0" encoding="utf-8"?>
<!-- Generator: Adobe Illustrator 19.1.1, SVG Export Plug-In . SVG Version: 6.00 Build 0)  -->
<svg version="1.1" id="Warstwa_1" xmlns="http://www.w3.org/2000/svg" xmlns:xlink="http://www.w3.org/1999/xlink" x="0px" y="0px"
	 viewBox="0 0 400 400" style="enable-background:new 0 0 400 400;" xml:space="preserve">
<style type="text/css">
	.st0{fill:#ED1C24;}
</style>
<path class="st0" d="M157.1,395.4c13.8,3,28,4.7,42.7,4.7c7.7,0,15.2-0.5,22.7-1.4l-24.8-27.2C187.8,378.7,175.2,388.1,157.1,395.4
	 M34.2,196.1c-9.5-10-21.4-23-29.7-39.1c-3.1,13.9-4.8,28.3-4.8,43c0,6.9,0.4,13.7,1,20.3C11.3,211.2,22.8,203.1,34.2,196.1
	 M101.1,89.5c-21.9,0-33.1,12.9-33.1,30c0,13.5,12.3,26.4,26.4,41.4c5.6-3.1,16.8-10.4,16.8-10.4c12.9-8.3,23-18.1,23-31
	C134.2,102.5,121.9,89.5,101.1,89.5 M153.3,323.9l-79.7-86.4c-24.1,15.5-40.4,30-40.4,56.4c0,30.5,27,51.7,60.6,51.7
	C117.4,345.6,134.8,338.9,153.3,323.9 M399.8,200c0-110.5-89.5-200-200-200c-40.5,0-78.2,12.2-109.7,32.9c3.7-0.2,7.1-0.8,11-0.8
	c62.9,0,102.2,36.7,102.2,86.9c0,28.5-16.3,47.6-41,64.1c0,0-18.5,12.9-28.6,19.1l67.4,73.5c12.9-16,19.1-38.3,20.2-64.7h69.1
	c-2.8,47.6-14.6,85.4-42.7,114.3l46.8,50.8C357.1,342.5,399.8,276.3,399.8,200"/>
</svg>
