<?xml version="1.0" standalone="no"?>
<!DOCTYPE svg PUBLIC "-//W3C//DTD SVG 1.1//EN" "http://www.w3.org/Graphics/SVG/1.1/DTD/svg11.dtd" >
<svg>
<metadata>
Created by FontForge 20090914 at Fri May  6 07:53:32 2016
 By www-data
Copyright (c) EuroFONT, 2004. All rights reserved.
</metadata>
<defs>
<font id="SwitzerPSEFNHeavy" horiz-adv-x="663" >
  <font-face 
    font-family="Switzer PS EFN Heavy"
    font-weight="800"
    font-stretch="normal"
    units-per-em="1000"
    panose-1="2 0 9 3 0 0 0 0 0 0"
    ascent="800"
    descent="-200"
    x-height="521"
    cap-height="720"
    bbox="-41 -296.001 1048 955.002"
    underline-thickness="50"
    underline-position="-100"
    unicode-range="U+0020-U+FB02"
  />
<missing-glyph horiz-adv-x="296" 
 />
    <glyph glyph-name=".notdef" horiz-adv-x="296" 
 />
    <glyph glyph-name="space" unicode=" " horiz-adv-x="296" 
 />
    <glyph glyph-name="exclam" unicode="!" horiz-adv-x="318" 
d="M252 523l-45 -278h-91l-44 278v197h180v-197zM250 0h-178v177h178v-177z" />
    <glyph glyph-name="quotedbl" unicode="&#x22;" horiz-adv-x="456" 
d="M387 718c-1.33301 -30.667 -3.5 -76.332 -6.5 -136.999s-5.5 -106 -7.5 -136h-101l-6.5 134c-3 61.333 -5.5 107.666 -7.5 138.999h129zM197 718.002c-1.33301 -30 -5.99902 -121 -13.999 -273h-100c-6.66699 102.667 -11.334 193.667 -14.001 273h128z" />
    <glyph glyph-name="numbersign" unicode="#" horiz-adv-x="660" 
d="M604 508l-5 -88h-114l-17 -120h107l-5 -90h-115l-32 -213h-90l31 213h-111l-31 -213h-89l31 213h-109l5 90h116l19 120h-110l5 88h117l30 200h88l-29 -200h113l28 200h90l-29 -200h106zM395 420h-111l-18 -120h112z" />
    <glyph glyph-name="dollar" unicode="$" horiz-adv-x="701" 
 />
    <glyph glyph-name="percent" unicode="%" horiz-adv-x="974" 
d="M939 181c0 -55.333 -17.667 -102 -53 -140s-80 -57 -134 -57c-55.333 0 -101 19 -137 57s-54 85.667 -54 143c0 56 18.167 103.167 54.5 141.5s81.833 57.5 136.5 57.5s99.5 -19.167 134.5 -57.5s52.5 -86.5 52.5 -144.5zM727 728l-389 -746h-94l389 746h94zM412 524
c0 -55.333 -17.832 -102.167 -53.499 -140.5s-80.5 -57.5 -134.5 -57.5c-55.333 0 -101 19.167 -137 57.5s-54 85.833 -54 142.5c0 56 18 103.167 54 141.5s81.333 57.5 136 57.5c55.333 0 100.666 -19 135.999 -57s53 -86 53 -144zM828.001 182.999
c0 29.333 -6.83203 53.5 -20.499 72.5s-32.167 28.5 -55.5 28.5c-24 0 -43.167 -9.5 -57.5 -28.5s-21.5 -43.5 -21.5 -73.5c0 -29.333 7.16699 -53.333 21.5 -72s33.166 -28 56.499 -28s42 9.5 56 28.5s21 43.167 21 72.5zM301.002 525.999
c0 29.333 -7.00098 53.499 -21.001 72.499s-33 28.5 -57 28.5c-23.333 0 -42.166 -9.66699 -56.499 -29s-21.5 -43.666 -21.5 -72.999c0 -28.667 7 -52.667 21 -72s32.667 -29 56 -29c24.667 0 44 9.5 58 28.5s21 43.5 21 73.5z" />
    <glyph glyph-name="ampersand" unicode="&#x26;" horiz-adv-x="767" 
d="M758 0l-206.998 0.000976562c-1.33301 2 -20 23.667 -56 65c-20 -18 -42 -33 -66 -45c-46.667 -24 -97.334 -36 -152.001 -36c-70.667 0 -128 19.333 -172 58s-66 88.667 -66 150c0 49.333 13 91.166 39 125.499s64.667 64.833 116 91.5c-41.333 49.333 -62 95 -62 137
c0 52.667 21.167 95.334 63.5 128.001s92.833 49 151.5 49c61.333 0 112.166 -17.333 152.499 -52s60.5 -79.667 60.5 -135c0 -75.333 -41.333 -134.333 -124 -177l39 -44l39 -44c16 21.333 27.333 45.666 34 72.999h156c-17.333 -64 -49.333 -123 -96 -177l75 -83.5z
M415.002 547.001c0 18.667 -6.16797 34.002 -18.501 46.002s-28.166 18 -47.499 18c-18.667 0 -34.167 -5.33301 -46.5 -16s-18.5 -25.334 -18.5 -44.001c0 -30.667 18.333 -61.334 55 -92.001c24.667 13.333 43.5 26.833 56.5 40.5s19.5 29.5 19.5 47.5zM403.001 173.003
l-0.000976562 0.999023l-48.5 56l-60.5 71c-29.333 -16.667 -51.166 -32.667 -65.499 -48s-21.5 -33.666 -21.5 -54.999c0 -23.333 8.33301 -42 25 -56s37 -21 61 -21c21.333 0 42.5 5 63.5 15s36.5 22.333 46.5 37z" />
    <glyph glyph-name="quotesingle" unicode="'" horiz-adv-x="252" 
d="M190 718c0 -12 -0.669922 -30 -2.00293 -54s-2 -42 -2 -54c-0.666992 -16 -1.5 -33.167 -2.5 -51.5l-3.5 -61.5l-3 -52h-102c-1.33301 19.333 -3.16602 48.833 -5.49902 88.5s-4.16602 69.5 -5.49902 89.5c-0.666992 9.33301 -1.16699 19.333 -1.5 30
s-0.666016 22.5 -0.999023 35.5s-0.5 22.833 -0.5 29.5h129z" />
    <glyph glyph-name="parenleft" unicode="(" horiz-adv-x="360" 
d="M316 -161l-149.001 -0.00292969c-79.333 146.667 -119 293.334 -119 440.001s40 294.334 120 443.001h145c-66 -153.333 -99 -298.666 -99 -435.999c0 -10.667 0.333008 -18.667 1 -24c1.33301 -45.333 14.333 -119 39 -221s45.334 -169.333 62.001 -202z" />
    <glyph glyph-name="parenright" unicode=")" horiz-adv-x="360" 
d="M311 282c0 -144 -40 -292 -120 -444h-146c66.667 154.667 100 300.334 100 437.001c0 48.667 -12.5 126.167 -37.5 232.5s-46.833 177.833 -65.5 214.5h149c80 -146.667 120 -293.334 120 -440.001z" />
    <glyph glyph-name="asterisk" unicode="*" horiz-adv-x="487" 
d="M445 544l-125 -41l82 -106l-79 -59l-78 111l-80 -111l-80 58l83 106l-127 38l32 93l123 -43v130h95v-130l122 45z" />
    <glyph glyph-name="plus" unicode="+" horiz-adv-x="669" 
d="M599 243h-212v-212h-106v212h-211v105h211v210h106v-210h212v-105z" />
    <glyph glyph-name="comma" unicode="," horiz-adv-x="314" 
d="M248 49c0 -4.66699 -0.164062 -11.499 -0.49707 -20.499s-0.5 -15.5 -0.5 -19.5c-0.666992 -46.667 -12.334 -84 -35.001 -112c-34 -44.667 -82.667 -68.334 -146 -71.001v79c29.333 4.66699 51.666 17.667 66.999 39c9.33301 15.333 14.666 34 15.999 56h-85v181h184
v-132z" />
    <glyph glyph-name="hyphen" unicode="-" horiz-adv-x="333" 
d="M308 195h-284v159h284v-159z" />
    <glyph glyph-name="period" unicode="." horiz-adv-x="314" 
d="M249 0h-184v182h184v-182z" />
    <glyph glyph-name="slash" unicode="/" horiz-adv-x="354" 
d="M362 722l-251 -805h-131l251 805h131z" />
    <glyph glyph-name="zero" unicode="0" 
d="M628 355c0 -111.333 -25.001 -201.167 -75.001 -269.5s-124.333 -102.5 -223 -102.5c-99.333 0 -173.666 34.167 -222.999 102.5s-74 158.5 -74 270.5c0 132 34.333 229.667 103 293c52 48.667 116.667 73 194 73c80 0 146.333 -25.667 199 -77
c66 -63.333 99 -160 99 -290zM448.999 351.999c0 154 -40 231 -120 231c-78 0 -117 -77.333 -117 -232c0 -154 39.333 -231 118 -231c79.333 0 119 77.333 119 232z" />
    <glyph glyph-name="one" unicode="1" 
d="M465 0h-181v435h-169v125c68.667 2 120.667 19.333 156 52c28 24.667 45.333 59 52 103h142v-715z" />
    <glyph glyph-name="two" unicode="2" 
d="M621 498c0 -44 -11.999 -84.001 -35.999 -120.001c-10.667 -16 -25.667 -32.167 -45 -48.5s-35 -28.333 -47 -36l-68 -41.5c-69.333 -42 -114.666 -75.333 -135.999 -100h329v-152h-568c0.666992 47.333 7.33398 86 20.001 116c21.333 54.667 74.333 110.667 159 168
l59 39c26.667 17.333 48.167 31.833 64.5 43.5s29.833 22.834 40.5 33.501c31.333 30 47 60.333 47 91c0 22.667 -9.33301 42 -28 58s-39.334 24 -62.001 24c-29.333 0 -54.833 -9.66699 -76.5 -29s-34.5 -47.333 -38.5 -84c-2.66699 -8 -4 -17.667 -4 -29h-167
c0.666992 76.667 16 137.667 46 183c47.333 72 126.666 108 237.999 108c77.333 0 142.166 -19.667 194.499 -59s78.5 -94.333 78.5 -165z" />
    <glyph glyph-name="three" unicode="3" 
d="M615 226c0 -77.333 -27.5 -137.167 -82.5 -179.5s-126.167 -63.5 -213.5 -63.5c-125.333 0 -208.666 47 -249.999 141c-12 27.333 -19 57.666 -21 90.999c-1.33301 13.333 -2 24.333 -2 33h168c0.666992 -33.333 9.66699 -61.666 27 -84.999c20 -26 48.667 -39 86 -39
c32 0 58.167 8.83301 78.5 26.5s30.5 40.5 30.5 68.5c0 30.667 -11 53.667 -33 69s-49 23 -81 23h-32v115c18.667 0 32.667 0.333008 42 1c62 7.33301 93 33.666 93 78.999c0 25.333 -8.66699 44.833 -26 58.5s-39.333 20.5 -66 20.5c-27.333 0 -51.333 -10.167 -72 -30.5
s-32 -44.5 -34 -72.5h-165c4 58 19.667 106 47 144c47.333 64 122.666 96 225.999 96c74.667 0 136.5 -17.333 185.5 -52s73.5 -83 73.5 -145s-29 -109.333 -87 -142c72 -27.333 108 -79.666 108 -156.999z" />
    <glyph glyph-name="four" unicode="4" 
d="M622 156h-94v-156h-175v156h-321v153l163 201l163 201h170v-416h94v-139zM353 295v237h-1l-184 -237h185z" />
    <glyph glyph-name="five" unicode="5" 
d="M618 244c0 -82.667 -27.6631 -146.834 -82.9961 -192.501s-127.666 -68.5 -216.999 -68.5c-96 0 -169.667 28.333 -221 85c-30.667 34 -51.334 76.333 -62.001 127c80 6.66699 140 11.334 180 14.001c6.66699 -24 21.5 -44 44.5 -60s45.167 -24 66.5 -24
c33.333 0 60.166 10.833 80.499 32.5s30.5 49.834 30.5 84.501c0 31.333 -10.833 58.666 -32.5 81.999s-48.167 35 -79.5 35c-42 0 -73 -16 -93 -48c-18.667 0.666992 -46.834 1 -84.501 1s-65.834 0.333008 -84.501 1c7.33301 46 18.666 113.167 33.999 201.5l34 195.5h437
v-147h-302l-14.5 -64.5l-13.5 -59.5c36 26.667 81.333 40 136 40c71.333 0 129.833 -21.333 175.5 -64s68.5 -99.667 68.5 -171z" />
    <glyph glyph-name="six" unicode="6" 
d="M625 235c0 -77.333 -25.667 -138.668 -77 -184.001s-119.666 -68 -204.999 -68c-112 0 -193.667 38.667 -245 116c-40.667 60.667 -61 143.334 -61 248.001c0 127.333 32.333 225 97 293c52.667 54.667 122 82 208 82c101.333 0 174.666 -30.667 219.999 -92
c22 -28.667 36.333 -61 43 -97c-69.333 -4 -124.333 -7.33301 -165 -10c-13.333 46 -45 69 -95 69c-40.667 0 -71.5 -16.5 -92.5 -49.5s-32.167 -76.5 -33.5 -130.5c48 38 103 57 165 57c72.667 0 131 -23 175 -69s66 -101 66 -165zM448 229.998
c0 34 -9.66797 61.5 -29.001 82.5s-45.666 31.5 -78.999 31.5h-2c-35.333 0 -63 -10.833 -83 -32.5s-30 -49.167 -30 -82.5c0 -32.667 10.667 -59.5 32 -80.5s48 -31.5 80 -31.5c34 0 61 10.333 81 31s30 48 30 82z" />
    <glyph glyph-name="seven" unicode="7" 
d="M606 573c-71.333 -71.333 -128.501 -156.667 -171.501 -256s-67.167 -205 -72.5 -317h-192c8.66699 86 27.667 167 57 243c44.667 117.333 110.334 221.333 197.001 312h-363v155h545v-137z" />
    <glyph glyph-name="eight" unicode="8" 
d="M623 209c0 -68.667 -27.167 -123.668 -81.5 -165.001s-124.5 -62 -210.5 -62c-85.333 0 -155.5 20.167 -210.5 60.5s-82.5 95.833 -82.5 166.5c0 39.333 9.5 72.333 28.5 99s48.5 49.667 88.5 69c-31.333 18 -54.333 38.333 -69 61s-22 51.667 -22 87
c0 60.667 25.333 108.667 76 144s115 53 193 53c78.667 0 142 -18.167 190 -54.5s72 -83.166 72 -140.499c0 -68 -30.333 -117.333 -91 -148c79.333 -36 119 -92.667 119 -170zM432 508.999c0 27.333 -9.49902 49 -28.499 65s-43.833 24 -74.5 24s-55.834 -8 -75.501 -24
s-29.5 -38 -29.5 -66c0 -27.333 9.5 -48.333 28.5 -63s44.167 -22 75.5 -22c32 0 57.333 7.5 76 22.5s28 36.167 28 63.5zM448.001 218.999c0 31.333 -10.5 56.332 -31.5 74.999s-49.167 28 -84.5 28c-36 0 -64.833 -9.16699 -86.5 -27.5s-32.5 -43.833 -32.5 -76.5
c0 -33.333 12.167 -59.333 36.5 -78s54.833 -27 91.5 -25c33.333 1.33301 59.5 11.333 78.5 30s28.5 43.334 28.5 74.001z" />
    <glyph glyph-name="nine" unicode="9" 
d="M622 358c0 -102 -20.333 -185.332 -61 -249.999c-52.667 -83.333 -133.667 -125 -243 -125c-100 0 -173.333 30.333 -220 91c-21.333 27.333 -35.333 59.666 -42 96.999c71.333 5.33301 126 8.66602 164 9.99902c12 -46 44 -69 96 -69c40 0 70.333 15.833 91 47.5
s31.667 76.167 33 133.5c-49.333 -38.667 -103.333 -58 -162 -58c-73.333 0 -132 23 -176 69s-66 101.667 -66 167c0 77.333 25.833 138.5 77.5 183.5s119.167 67.5 202.5 67.5c94.667 0 167.667 -28 219 -84c58 -63.333 87 -156.666 87 -279.999zM434 476.001
c0 32.667 -10.5 59.667 -31.5 81s-47.833 32 -80.5 32c-34 0 -60.833 -10.667 -80.5 -32s-29.5 -49 -29.5 -83c0 -33.333 10 -60.5 30 -81.5s46.333 -31.5 79 -31.5c35.333 0 63 10.833 83 32.5s30 49.167 30 82.5z" />
    <glyph glyph-name="colon" unicode=":" horiz-adv-x="314" 
d="M252 338h-184v183h184v-183zM252 0h-184v182h184v-182z" />
    <glyph glyph-name="semicolon" unicode=";" horiz-adv-x="314" 
d="M251 338h-184v183h184v-183zM251 53c0 -5.33301 -0.165039 -12.832 -0.498047 -22.499s-0.5 -16.834 -0.5 -21.501c-0.666992 -42.667 -11.334 -78.667 -32.001 -108c-32.667 -46.667 -82.334 -71.667 -149.001 -75v79c29.333 4 51 16 65 36
c10.667 16 16.667 35.667 18 59h-85v181h184v-128z" />
    <glyph glyph-name="less" unicode="&#x3c;" horiz-adv-x="597" 
d="M543 -9l-491 240v122l491 239v-149l-324 -152l324 -151v-149z" />
    <glyph glyph-name="equal" unicode="=" horiz-adv-x="669" 
d="M599 337h-529v107h529v-107zM599 147h-529v107h529v-107z" />
    <glyph glyph-name="greater" unicode="&#x3e;" horiz-adv-x="597" 
d="M544 231l-491 -240v149l323 151l-323 152v149l491 -239v-122z" />
    <glyph glyph-name="question" unicode="?" horiz-adv-x="594" 
d="M557 527c0 -20.667 -3.00195 -39.335 -9.00195 -56.002s-15.667 -31.667 -29 -45s-25.166 -24 -35.499 -32s-25.5 -18.333 -45.5 -31c-24 -15.333 -41.667 -30.166 -53 -44.499s-17 -32.5 -17 -54.5c0 -2.66699 0.166992 -6 0.5 -10s0.5 -7.33301 0.5 -10h-157
c-0.666992 7.33301 -1 18 -1 32c0 40.667 7.33301 72.5 22 95.5s40.334 46.167 77.001 69.5c14.667 9.33301 29.667 22 45 38s23 32 23 48c0 48 -27 72 -81 72c-28.667 0 -49.667 -9.66699 -63 -29s-20 -44.666 -20 -75.999h-176c0 6 0.666992 13.667 2 23
c6 66.667 30.667 119 74 157c47.333 41.333 111 62 191 62c83.333 0 148.333 -22.333 195 -67c38 -38 57 -85.333 57 -142zM379.998 -0.000976562h-179v175h179v-175z" />
    <glyph glyph-name="at" unicode="@" horiz-adv-x="830" 
d="M798 354c-0.666992 -74 -22.333 -138.499 -65 -193.499s-99.334 -82.5 -170.001 -82.5c-19.333 0 -36.166 4.83301 -50.499 14.5s-22.833 23.167 -25.5 40.5h-1c-34.667 -38 -73.667 -57 -117 -57c-46 0 -84.333 17.333 -115 52s-46 76.334 -46 125.001
c0 62 20.167 117.333 60.5 166s90.166 73 149.499 73c51.333 0 89 -19.667 113 -59l5.5 20c2.33301 8.66699 4.16602 16 5.49902 22h94c-4 -22 -12.667 -62.333 -26 -121s-21.666 -96.334 -24.999 -113.001c-6.66699 -33.333 -10 -53.333 -10 -60c0 -16.667 7 -25 21 -25
c31.333 0 57.833 20.667 79.5 62s32.5 83.333 32.5 126v2c0 76.667 -26.333 138 -79 184s-116 69 -190 69h-2c-85.333 0 -158.5 -30.167 -219.5 -90.5s-91.5 -137.833 -91.5 -232.5v-4c1.33301 -81.333 29.666 -148.833 84.999 -202.5s129 -80.5 221 -80.5
c70 0 137.333 19.333 202 58c6.66699 -5.33301 16.834 -13 30.501 -23s23.834 -17.667 30.501 -23c-73.333 -67.333 -162 -101 -266 -101c-120 0 -216.667 35.5 -290 106.5s-110.333 159.5 -111 265.5v4c0 81.333 19.167 153.833 57.5 217.5s88 111.834 149 144.501
s127.167 49 198.5 49h4c96.667 -0.666992 181 -31.334 253 -92.001s108 -139.334 108 -236.001v-5zM502.001 312.001c0 23.333 -6.83301 42.668 -20.5 58.001s-31.5 23 -53.5 23c-30.667 0 -56.667 -14 -78 -42s-32 -58.667 -32 -92c0 -23.333 7 -43.333 21 -60
s32 -25 54 -25c30.667 0 56.5 14.667 77.5 44s31.5 60.666 31.5 93.999z" />
    <glyph glyph-name="A" unicode="A" horiz-adv-x="730" 
d="M727 0h-197c-24 71.333 -38 114 -42 128h-252c-18.667 -57.333 -33 -100 -43 -128h-191l126 345.5l137 374.5h200zM447 260l-82 277h-1l-42 -138.5l-42 -138.5h167z" />
    <glyph glyph-name="B" unicode="B" horiz-adv-x="743" 
d="M701 214c0 -40 -7.66699 -74.3301 -23 -102.997s-36.5 -50.834 -63.5 -66.501s-56.333 -27 -88 -34s-66.167 -10.5 -103.5 -10.5h-351v720h332c178.667 0 268 -61 268 -183c0 -68.667 -31.667 -119.334 -95 -152.001c40 -12.667 70.667 -33.834 92 -63.501
s32 -65.5 32 -107.5zM491 503.003c0 46.667 -34 70 -102 70h-124v-143h123c26.667 0 50.5 6.16699 71.5 18.5s31.5 30.5 31.5 54.5zM517 228.003c0 18 -3.66699 32.832 -11 44.499s-18.166 19.834 -32.499 24.501s-27.5 7.66699 -39.5 9s-27.333 2 -46 2h-123v-162h150
c27.333 0 51.166 7.16699 71.499 21.5s30.5 34.5 30.5 60.5z" />
    <glyph glyph-name="C" unicode="C" horiz-adv-x="757" 
d="M726 273c-10.667 -90.667 -45.001 -161.834 -103.001 -213.501s-133 -77.5 -225 -77.5c-111.333 0 -199.666 34.833 -264.999 104.5s-98 160.834 -98 273.501c0 108.667 32.5 198.667 97.5 270s149.5 107 253.5 107c115.333 0 204.333 -37 267 -111
c36 -43.333 58 -98 66 -164h-187c-6 38.667 -21.333 68.5 -46 89.5s-56.667 31.5 -96 31.5c-37.333 0 -68.666 -12.5 -93.999 -37.5s-42.833 -54 -52.5 -87s-14.5 -67.833 -14.5 -104.5c0 -64 13.5 -116.5 40.5 -157.5s69.167 -61.5 126.5 -61.5c16 0 30 3.33301 42 10
c57.333 14 89.666 56.667 96.999 128h191z" />
    <glyph glyph-name="D" unicode="D" horiz-adv-x="766" 
d="M730 367c0 -156 -52.668 -263.333 -158.001 -322c-54 -30 -118.333 -45 -193 -45h-308v720h308c112.667 0 199.334 -30.5 260.001 -91.5s91 -148.167 91 -261.5zM535.999 361c0 69.333 -14.333 120.833 -43 154.5s-75.667 50.5 -141 50.5h-88v-413h89
c36.667 0 68 7 94 21c59.333 30.667 89 93 89 187z" />
    <glyph glyph-name="E" unicode="E" horiz-adv-x="704" 
d="M660 0h-585v720h574v-154h-381v-130h335v-143h-335v-140h392v-153z" />
    <glyph glyph-name="F" unicode="F" horiz-adv-x="651" 
d="M622 566h-354v-144h293v-147h-293v-275h-194v720h548v-154z" />
    <glyph glyph-name="G" unicode="G" horiz-adv-x="805" 
d="M743 -1h-127.001c-1.33301 8 -3.66602 20.5 -6.99902 37.5s-6 29.833 -8 38.5c-54 -62 -127.333 -93 -220 -93c-100.667 0 -182.667 33.833 -246 101.5s-95 155.834 -95 264.501c0 126.667 39.667 226.667 119 300c64.667 59.333 145.667 89 243 89c88 0 161 -22 219 -66
s94 -107.667 108 -191h-186c-8.66699 34 -25.667 59.833 -51 77.5s-55.666 26.5 -90.999 26.5c-55.333 0 -96.833 -21.333 -124.5 -64s-41.5 -97 -41.5 -163s14.667 -119.5 44 -160.5s74 -61.5 134 -61.5c31.333 0 59.666 8.33301 84.999 25
c32.667 21.333 54 52.666 64 93.999h-131v139h312v-394z" />
    <glyph glyph-name="H" unicode="H" horiz-adv-x="790" 
d="M718 0h-194v293h-259v-293h-193v720h193v-262h259v262h194v-720z" />
    <glyph glyph-name="I" unicode="I" horiz-adv-x="348" 
d="M272 0h-194v720h194v-720z" />
    <glyph glyph-name="J" unicode="J" horiz-adv-x="610" 
d="M539 243c0 -82 -22.1699 -145.999 -66.5029 -191.999s-108.166 -69 -191.499 -69c-80.667 0 -142.667 20.667 -186 62s-67.666 99.666 -72.999 174.999c-3.33301 18 -3.66602 41 -0.999023 69h166c0 -102 27.333 -153 82 -153c51.333 0 77 34 77 102v483h193v-477z" />
    <glyph glyph-name="K" unicode="K" horiz-adv-x="772" 
d="M774 0h-236l-196 305l-75 -77v-228h-194v720h194v-265l248 265h238l-277 -282z" />
    <glyph glyph-name="L" unicode="L" horiz-adv-x="624" 
d="M601 0h-527v720h193v-567h334v-153z" />
    <glyph glyph-name="M" unicode="M" horiz-adv-x="911" 
d="M843 0h-177l6 480h-1l-144 -480h-144l-143 480h-1l5 -480h-177v720h249l140 -467l139 467h248v-720z" />
    <glyph glyph-name="N" unicode="N" horiz-adv-x="790" 
d="M720 0h-191.999l-135.5 215.5l-136.5 215.5h-1c1.33301 -94 2.66602 -237.667 3.99902 -431h-188v720h190l273 -435l-3 435h189v-720z" />
    <glyph glyph-name="O" unicode="O" horiz-adv-x="810" 
d="M771 360c0 -67.333 -12.332 -127.667 -36.999 -181s-59.334 -96.333 -104.001 -129c-60.667 -45.333 -135.667 -68 -225 -68c-100.667 0 -183 28.333 -247 85c-78.667 69.333 -118 168 -118 296c0 111.333 33.333 201.5 100 270.5s155 103.5 265 103.5
c114 0 203.5 -35.667 268.5 -107s97.5 -161.333 97.5 -270zM576.001 359.999c0 64 -15 117.334 -45 160.001s-72 64 -126 64h-1c-54.667 0 -96.667 -21.333 -126 -64s-44 -96 -44 -160s14.667 -117.5 44 -160.5s71.666 -64.5 126.999 -64.5
c54.667 0 96.834 20.667 126.501 62s44.5 95.666 44.5 162.999z" />
    <glyph glyph-name="P" unicode="P" horiz-adv-x="708" 
d="M684 481c0 -116 -52.666 -191 -157.999 -225c-28.667 -8.66699 -62.334 -13.667 -101.001 -15c-12.667 -0.666992 -31.667 -1 -57 -1c-14 0 -33 0.166992 -57 0.5s-40.333 0.5 -49 0.5v-241h-194v720h336c47.333 0 89 -6 125 -18c48.667 -16.667 86.667 -44 114 -82
s41 -84.333 41 -139zM493.001 481c0 23.333 -7 42.668 -21 58.001s-32.667 24.666 -56 27.999c-15.333 2.66699 -39.333 4 -72 4h-82v-183h125c70.667 0 106 31 106 93z" />
    <glyph glyph-name="Q" unicode="Q" horiz-adv-x="810" 
d="M771 361c0 -105.333 -29.667 -192.667 -89 -262l85 -80l-85 -92l-99 94c-53.333 -26.667 -112.666 -40 -177.999 -40c-111.333 0 -200 34.5 -266 103.5s-99 161.167 -99 276.5c0 112 33.167 202.667 99.5 272s154.833 104 265.5 104
c111.333 0 200.166 -35.167 266.499 -105.5s99.5 -160.5 99.5 -270.5zM576 359.999c0 66.667 -15.499 120.666 -46.499 161.999s-72.5 62 -124.5 62c-54.667 0 -96.834 -21.333 -126.501 -64s-44.5 -96 -44.5 -160s14.667 -117.5 44 -160.5s71.666 -64.5 126.999 -64.5
c16.667 0 34.334 3 53.001 9l-71 69l83 90l76 -71c20 34.667 30 77.334 30 128.001z" />
    <glyph glyph-name="R" unicode="R" horiz-adv-x="750" 
d="M720 0h-201c-7.33301 20 -11.666 56.333 -12.999 109c-2 52.667 -8 88.334 -18 107.001c-8.66699 17.333 -22.334 29.666 -41.001 36.999s-45 11 -79 11h-105v-264h-193v720h342c192.667 0 289 -68.333 289 -205c0 -88.667 -40.667 -148 -122 -178
c46.667 -16 78 -42.333 94 -79c9.33301 -22.667 14.666 -54 15.999 -94c0.666992 -13.333 2.33398 -33.333 5.00098 -60c3.33301 -36 12 -70.667 26 -104zM511 486c0 56.667 -36.666 85 -109.999 85h-138v-169h134c27.333 0 53.166 7.5 77.499 22.5s36.5 35.5 36.5 61.5z
" />
    <glyph glyph-name="S" unicode="S" horiz-adv-x="701" 
d="M667 220c0 -72.667 -28.6641 -130.335 -85.9971 -173.002c-56.667 -43.333 -134.334 -65 -233.001 -65c-85.333 0 -157.833 20.833 -217.5 62.5s-92.167 103.167 -97.5 184.5h190c2.66699 -30.667 16.667 -55.5 42 -74.5s55.333 -28.5 90 -28.5
c18 0 35.333 1.83301 52 5.5s32.167 11.334 46.5 23.001s21.5 26.5 21.5 44.5c0 6 -1 11.667 -3 17s-5.16699 10.166 -9.5 14.499s-8.66602 8.33301 -12.999 12s-10.333 7.33398 -18 11.001s-14.167 6.66699 -19.5 9s-12.833 5 -22.5 8s-16.834 5.16699 -21.501 6.5
s-12.334 3.33301 -23.001 6s-17.667 4.33398 -21 5.00098c-89.333 23.333 -151 45.666 -185 66.999c-57.333 36.667 -86 89.667 -86 159c0 55.333 18.333 102.333 55 141c54 54.667 134 82 240 82c113.333 0 194.666 -31.667 243.999 -95
c26.667 -33.333 43 -77.666 49 -132.999h-187c-4 28 -16.833 49 -38.5 63s-47.167 21 -76.5 21c-24 0 -46 -5.16699 -66 -15.5s-30 -26.5 -30 -48.5c0 -17.333 8.33301 -30.833 25 -40.5s45 -20.167 85 -31.5l69 -18c49.333 -12.667 85 -23.667 107 -33
c92 -38 138 -100 138 -186z" />
    <glyph glyph-name="T" unicode="T" horiz-adv-x="662" 
d="M645 559h-217v-559h-193v559h-217v161h627v-161z" />
    <glyph glyph-name="U" unicode="U" horiz-adv-x="788" 
d="M720 297c0 -86 -16.332 -153.331 -48.999 -201.998c-50.667 -75.333 -142.334 -113 -275.001 -113c-144.667 0 -241 43.667 -289 131c-25.333 45.333 -38 110.666 -38 195.999v411h194v-447c0 -40 12.167 -73 36.5 -99s56.5 -39 96.5 -39c42 0 74.167 12.167 96.5 36.5
s33.5 58.166 33.5 101.499v447h194v-423z" />
    <glyph glyph-name="V" unicode="V" horiz-adv-x="706" 
d="M698 720c-12.667 -34.667 -35.833 -102 -69.5 -202l-106.5 -315l-69 -203h-206l-67 203l-104 315l-68 202h198c8 -26 31.667 -110 71 -252s64 -229.667 74 -263l148 515h199z" />
    <glyph glyph-name="W" unicode="W" horiz-adv-x="978" 
d="M974 720l-188.001 -720.001h-193c-5.33301 18 -23 98.667 -53 242s-47 222.333 -51 237h-1l-51 -239.5l-51 -239.5h-193l-190 720h189c4.66699 -19.333 22.834 -102.166 54.501 -248.499s48.167 -222.833 49.5 -229.5h1l51 229l56 249h169
c9.33301 -38.667 45.333 -198 108 -478h1l104 478h188z" />
    <glyph glyph-name="X" unicode="X" horiz-adv-x="730" 
d="M733 0h-228l-77.5 127l-63.5 103l-142 -230h-224l136.5 197.5l120.5 174.5l-236 348h223l127 -213l131 213h222l-121.5 -174l-122.5 -174z" />
    <glyph glyph-name="Y" unicode="Y" horiz-adv-x="723" 
d="M726 720l-268 -450v-270h-193v268l-268 452h217l149 -282l147 282h216z" />
    <glyph glyph-name="Z" unicode="Z" horiz-adv-x="677" 
d="M650 0h-619v154l356 412h-336v154h584v-145l-367 -422h382v-153z" />
    <glyph glyph-name="bracketleft" unicode="[" horiz-adv-x="365" 
d="M330 -162h-273v884h273v-127h-115v-630h115v-127z" />
    <glyph glyph-name="backslash" unicode="\" horiz-adv-x="354" 
d="M374 -83h-130l-252 805h131z" />
    <glyph glyph-name="bracketright" unicode="]" horiz-adv-x="365" 
d="M307 -162h-273v127h115v630h-115v127h273v-884z" />
    <glyph glyph-name="asciicircum" unicode="^" horiz-adv-x="583" 
d="M536 334l-65 -8.5c-28.667 -3.66699 -49.667 -6.5 -63 -8.5l-116 269l-118 -269l-65 8.5c-28.667 3.66699 -49.667 6.5 -63 8.5l84 191l84 191h154l77 -175z" />
    <glyph glyph-name="underscore" unicode="_" horiz-adv-x="522" 
d="M525 -151h-528v79h528v-79z" />
    <glyph glyph-name="grave" unicode="`" horiz-adv-x="397" 
d="M328 582h-114l-145 154h179z" />
    <glyph glyph-name="a" unicode="a" horiz-adv-x="614" 
d="M589 0l-171.998 0.00390625c-12.667 13.333 -21 32.666 -25 57.999c-44.667 -49.333 -105.334 -74 -182.001 -74c-52.667 0 -95.5 13.333 -128.5 40s-49.5 64 -49.5 112c0 65.333 29 111.333 87 138c8.66699 4 17.667 7.5 27 10.5s20.166 5.83301 32.499 8.5l30 6.5
c7.66699 1.66699 19.334 3.66699 35.001 6s26.834 4.16602 33.501 5.49902c8.66699 1.33301 23.667 4.66602 45 9.99902c40.667 12 61 27.333 61 46c0 37.333 -25.667 56 -77 56c-22 0 -41.833 -5.83301 -59.5 -17.5s-26.834 -27.834 -27.501 -48.501h-163
c1.33301 51.333 18.666 92 51.999 122c41.333 37.333 108.333 56 201 56c61.333 0 110.5 -7 147.5 -21s62.833 -37.667 77.5 -71c12 -28.667 18 -69 18 -121v-188c0 -34 12.333 -78.667 37 -134zM384.002 244.004c-20 -11.333 -55.333 -22.667 -106 -34
c-26.667 -6 -46.167 -13.667 -58.5 -23s-18.5 -23.333 -18.5 -42c0 -16.667 6.5 -29.667 19.5 -39s30.5 -14 52.5 -14c30.667 0 56.5 9.5 77.5 28.5s31.833 44.167 32.5 75.5c0 5.33301 0.166992 13.333 0.5 24s0.5 18.667 0.5 24z" />
    <glyph glyph-name="b" unicode="b" horiz-adv-x="642" 
d="M609 259c0 -79.333 -19.667 -145 -59 -197s-95.666 -78 -168.999 -78c-71.333 0 -126.333 27.333 -165 82h-1v-66h-161v721h173l1 -258c37.333 48 89.333 72 156 72c69.333 0 124.166 -26.5 164.499 -79.5s60.5 -118.5 60.5 -196.5zM435 259
c0 39.333 -8.83398 72.832 -26.501 100.499s-44.167 41.5 -79.5 41.5c-34 0 -60.167 -13.667 -78.5 -41s-27.5 -59.666 -27.5 -96.999c0 -40.667 9 -75.167 27 -103.5s44.667 -42.5 80 -42.5c34.667 0 60.834 13.833 78.501 41.5s26.5 61.167 26.5 100.5z" />
    <glyph glyph-name="c" unicode="c" horiz-adv-x="612" 
d="M577 201c-6 -62.667 -30 -113 -72 -151c-48 -44 -112.667 -66 -194 -66c-82 0 -148.833 25 -200.5 75s-77.5 115.667 -77.5 197c0 84 25.833 151.5 77.5 202.5s120.167 76.5 205.5 76.5c70.667 0 129.334 -17.5 176.001 -52.5s74 -85.833 82 -152.5
c-18.667 0 -47 -0.166992 -85 -0.5s-66.667 -0.5 -86 -0.5c-3.33301 20.667 -12.166 36.834 -26.499 48.501s-31.833 17.5 -52.5 17.5c-38.667 0 -67.667 -13 -87 -39s-29 -59.333 -29 -100s8.66699 -74.834 26 -102.501s45 -41.5 83 -41.5c8 0 16 1 24 3
c37.333 8.66699 58.666 37.667 63.999 87c19.333 0 48.166 -0.166992 86.499 -0.5s66.833 -0.5 85.5 -0.5z" />
    <glyph glyph-name="d" unicode="d" horiz-adv-x="644" 
d="M587 0h-158.999v65c-21.333 -29.333 -44.5 -50.166 -69.5 -62.499s-55.5 -18.5 -91.5 -18.5c-76.667 0 -136.334 28.667 -179.001 86c-36.667 50 -55 112 -55 186c0 83.333 20.833 150.666 62.5 201.999s96.167 77 163.5 77c65.333 0 117.333 -23.667 156 -71v256h172
v-720zM418.001 261c0 41.333 -9.00098 74.999 -27.001 100.999s-44.667 39 -80 39c-34 0 -59.833 -13.5 -77.5 -40.5s-26.5 -61.167 -26.5 -102.5s8.66699 -75.166 26 -101.499s43 -39.5 77 -39.5c34.667 0 61.334 13.5 80.001 40.5s28 61.5 28 103.5z" />
    <glyph glyph-name="e" unicode="e" horiz-adv-x="629" 
d="M590 217l-382.999 0.000976562c1.33301 -34 12.666 -61.833 33.999 -83.5s49 -32.5 83 -32.5c44.667 0 75 19.333 91 58h168c-10.667 -41.333 -32 -77 -64 -107c-49.333 -45.333 -118 -68 -206 -68c-83.333 0 -150.666 25 -201.999 75s-77 116.667 -77 200
c0 81.333 25.833 147.666 77.5 198.999s118.167 77 199.5 77c111.333 0 191.666 -44.333 240.999 -133c25.333 -45.333 38 -107 38 -185zM420.001 315.001c-1.33301 29.333 -11.668 54 -31.001 74s-43.666 30 -72.999 30c-32 0 -57.5 -9.33301 -76.5 -28
s-29.5 -44 -31.5 -76h212z" />
    <glyph glyph-name="f" unicode="f" horiz-adv-x="360" 
d="M349 609c-3.33301 0 -7.83301 0.166992 -13.5 0.5s-9.83398 0.5 -12.501 0.5c-6 0 -13.667 -0.666992 -23 -2c-31.333 -4.66699 -47 -25 -47 -61v-26h95v-106h-95v-415h-173v415h-72v106h73c0 8 0.166992 18.833 0.5 32.5s0.5 21.167 0.5 22.5
c5.33301 102 66.333 153 183 153h19c22.667 0 44.334 -0.666992 65.001 -2v-118z" />
    <glyph glyph-name="g" unicode="g" horiz-adv-x="635" 
d="M575 90c0 -4 -0.168945 -10 -0.501953 -18s-0.5 -13.667 -0.5 -17c-2 -52.667 -10.333 -95 -25 -127c-35.333 -77.333 -114.666 -116 -237.999 -116c-71.333 0 -128.666 13 -171.999 39s-69 65.333 -77 118h169c7.33301 -32 34 -48 80 -48c47.333 0 77.333 22 90 66
c5.33301 20 8 51 8 93c-40.667 -42 -90.667 -63 -150 -63c-70 0 -125.167 23.833 -165.5 71.5s-60.5 107.5 -60.5 179.5c0 76 19.667 139.5 59 190.5s96 76.5 170 76.5c68 0 120.667 -28.333 158 -85v71h155v-431zM410.998 274c0 37.333 -8.5 68.668 -25.5 94.001
s-42.833 38 -77.5 38c-35.333 0 -61.833 -12.5 -79.5 -37.5s-26.5 -56.833 -26.5 -95.5c0 -36.667 9 -67.834 27 -93.501s43.667 -38.5 77 -38.5h1c34 0 59.833 12.833 77.5 38.5s26.5 57.167 26.5 94.5z" />
    <glyph glyph-name="h" unicode="h" horiz-adv-x="639" 
d="M581 0l-172 0.000976562v291c0 29.333 -7.16699 54.166 -21.5 74.499s-34.5 30.5 -60.5 30.5c-65.333 0 -98 -40.333 -98 -121v-275h-173v721h173v-264h1c23.333 28 47.5 48 72.5 60s54.833 18 89.5 18c94.667 0 153.667 -39.667 177 -119c8 -26.667 12 -57.667 12 -93
v-323z" />
    <glyph glyph-name="i" unicode="i" horiz-adv-x="298" 
d="M235 592h-174v133h174v-133zM235 0h-173v521h173v-521z" />
    <glyph glyph-name="j" unicode="j" horiz-adv-x="297" 
d="M240 592h-174v133h174v-133zM240 35c0 -55.333 -4.66699 -96 -14 -122c-16 -46.667 -51.667 -75.334 -107 -86.001c-22 -4.66699 -43 -7 -63 -7c-38.667 0 -66.667 1.66699 -84 5v129c7.33301 -0.666992 17.333 -1 30 -1c6 0 13.667 0.666992 23 2
c23.333 5.33301 36.333 20 39 44c1.33301 14.667 2 26.334 2 35.001v67v420h174v-486z" />
    <glyph glyph-name="k" unicode="k" horiz-adv-x="608" 
d="M614 0h-209l-126 207l-24.5 -25l-24.5 -25v-157h-173v721h173v-374c10 10.667 35.667 39.667 77 87s67 76.333 77 87h207l-194 -199l108 -161z" />
    <glyph glyph-name="l" unicode="l" horiz-adv-x="298" 
d="M235 0h-173v721h173v-721z" />
    <glyph glyph-name="m" unicode="m" horiz-adv-x="956" 
d="M901 0l-172.999 0.000976562v259v8c0 18.667 -0.5 33.167 -1.5 43.5s-3.5 22.833 -7.5 37.5s-11.167 25.5 -21.5 32.5s-24.166 10.5 -41.499 10.5c-61.333 0 -92 -43.333 -92 -130v-261h-172v259c0 88.667 -23.667 133 -71 133c-30.667 0 -53.834 -10.667 -69.501 -32
s-23.5 -50 -23.5 -86v-274h-173v521h160v-77c40 60.667 95.333 91 166 91c76.667 0 129 -30.333 157 -91c43.333 60.667 101.333 91 174 91c69.333 0 118.166 -18.833 146.499 -56.5s42.5 -91.834 42.5 -162.501v-316z" />
    <glyph glyph-name="n" unicode="n" horiz-adv-x="636" 
d="M578 0h-172v303c0 26.667 -6.83301 48.5 -20.5 65.5s-33.167 25.5 -58.5 25.5c-65.333 0 -98 -40.667 -98 -122v-272h-173v521h160v-80c23.333 32.667 48.333 56.5 75 71.5s59 22.5 97 22.5c126.667 0 190 -69 190 -207v-328z" />
    <glyph glyph-name="o" unicode="o" horiz-adv-x="633" 
d="M597 261c0 -85.333 -26 -153 -78 -203s-120 -75 -204 -75c-83.333 0 -150.833 24.833 -202.5 74.5s-77.5 116.5 -77.5 200.5s25.5 151.167 76.5 201.5s118.5 75.5 202.5 75.5c86 0 154.667 -25.167 206 -75.5s77 -116.5 77 -198.5zM422 261
c0 47.333 -9.33301 84.5 -28 111.5s-44.667 40.5 -78 40.5c-34.667 0 -61.167 -13.833 -79.5 -41.5s-27.5 -64.5 -27.5 -110.5c0 -50.667 9.33301 -89 28 -115s44.667 -39 78 -39c34 0 60.333 13 79 39s28 64.333 28 115z" />
    <glyph glyph-name="p" unicode="p" horiz-adv-x="643" 
d="M608 259c0 -87.333 -21.833 -155 -65.5 -203s-100.5 -72 -170.5 -72c-60.667 0 -109 23.667 -145 71h-1v-237h-173v703h160v-72h1c36.667 57.333 90.667 86 162 86c73.333 0 130.333 -25.5 171 -76.5s61 -117.5 61 -199.5zM434 256c0 44 -9.66797 78.833 -29.001 104.5
s-46 38.5 -80 38.5c-31.333 0 -56.166 -13 -74.499 -39s-27.5 -60 -27.5 -102c0 -42.667 9.16699 -77 27.5 -103s43.833 -39 76.5 -39c33.333 0 59.5 12.833 78.5 38.5s28.5 59.5 28.5 101.5z" />
    <glyph glyph-name="q" unicode="q" horiz-adv-x="644" 
d="M586 -182h-173v233c-38 -44.667 -89.333 -67 -154 -67c-67.333 0 -122.166 25 -164.499 75s-63.5 116.667 -63.5 200c0 77.333 19.333 142.5 58 195.5s95.667 79.5 171 79.5c73.333 0 128.666 -28 165.999 -84h1v71h159v-703zM418 256
c0 40.667 -8.99902 74.5 -26.999 101.5s-44.333 40.5 -79 40.5s-61.167 -13.333 -79.5 -40s-27.5 -61 -27.5 -103s9 -75.833 27 -101.5s45 -38.5 81 -38.5c33.333 0 59.166 13.5 77.499 40.5s27.5 60.5 27.5 100.5z" />
    <glyph glyph-name="r" unicode="r" horiz-adv-x="424" 
d="M410 368c-13.333 2.66699 -27.667 4 -43 4c-91.333 0 -137 -53.667 -137 -161v-211h-173v521h158v-92h1c20 37.333 42.333 64 67 80s57 24 97 24c10 0 20 -1.33301 30 -4v-161z" />
    <glyph glyph-name="s" unicode="s" horiz-adv-x="568" 
d="M539 159c0 -57.333 -23.999 -100.83 -71.999 -130.497s-110 -44.5 -186 -44.5c-112 0 -187.667 30.667 -227 92c-16 25.333 -24.333 54.666 -25 87.999h166c1.33301 -23.333 11.166 -41.833 29.499 -55.5s39.5 -20.5 63.5 -20.5c19.333 0 37.166 4.66699 53.499 14
s24.5 23 24.5 41c0 20 -16 35 -48 45c-16.667 5.33301 -41.167 11.166 -73.5 17.499s-51.166 10.166 -56.499 11.499c-98 22.667 -147 73 -147 151c0 38 12.167 70 36.5 96s53.833 44.333 88.5 55s72.667 16 114 16c105.333 0 176 -26 212 -78
c16 -23.333 25.333 -52.333 28 -87h-162c-2.66699 18.667 -11 33.5 -25 44.5s-31 16.5 -51 16.5c-18 0 -34.667 -3.83301 -50 -11.5s-23 -19.5 -23 -35.5c0 -23.333 26.667 -40 80 -50c88.667 -16.667 147 -33 175 -49c50 -28.667 75 -70.667 75 -126z" />
    <glyph glyph-name="t" unicode="t" horiz-adv-x="387" 
d="M351 -1c-43.333 -4 -81.667 -6 -115 -6h-4c-68.667 0 -114 22.667 -136 68c-6.66699 14.667 -10.667 33.667 -12 57c-0.666992 18 -1 44.333 -1 79v218h-75v106h75v161h173v-161h95v-106h-95v-230c0 -22 4 -37.167 12 -45.5s23 -12.5 45 -12.5c16 0 28.667 0.666992 38 2
v-130z" />
    <glyph glyph-name="u" unicode="u" horiz-adv-x="636" 
d="M578 0l-160.001 -0.000976562v76c-24 -33.333 -49.5 -57 -76.5 -71s-60.167 -21 -99.5 -21c-87.333 0 -143.666 33.667 -168.999 101c-12 30.667 -18 70.667 -18 120v316h174v-296c0 -28.667 6.33301 -52.667 19 -72s32.667 -29 60 -29c32.667 0 57 12.833 73 38.5
s24 55.834 24 90.501v268h173v-521z" />
    <glyph glyph-name="v" unicode="v" horiz-adv-x="570" 
d="M564 521l-98 -283l-83 -238h-198l-180 521h176l105 -347l104 347h174z" />
    <glyph glyph-name="w" unicode="w" horiz-adv-x="870" 
d="M859 521l-164.001 -521.003h-175c-5.33301 22.667 -13.5 54.834 -24.5 96.501l-36 137.5l-25.5 97h-1l-81 -331h-176l-167 521h176l88 -338h1c34.667 146.667 62.334 259.334 83.001 338.001h158l83 -338h1c2 6.66699 9.83301 36.834 23.5 90.501l40.5 156.5l24 91h172z
" />
    <glyph glyph-name="x" unicode="x" horiz-adv-x="580" 
d="M570 0h-193l-89 155l-92 -155h-191l185 271l-85.5 124.5l-84.5 125.5h191l80 -136l39.5 68l39.5 68h191l-174 -249l91.5 -135.5z" />
    <glyph glyph-name="y" unicode="y" horiz-adv-x="573" 
d="M565 521l-52 -152.5l-62.5 -178.5l-53.5 -152c-24 -71.333 -48.333 -122 -73 -152c-24 -30 -52 -49 -84 -57c-20.667 -6 -41 -9 -61 -9c-56.667 0 -94.334 1 -113.001 3v130c4.66699 0 12.5 -0.5 23.5 -1.5s18.833 -1.5 23.5 -1.5c15.333 0 27.5 1.83301 36.5 5.5
s15.667 10.667 20 21s7 19 8 26s2.16699 19.5 3.5 37.5l-13 35l-87 235.5l-77 210.5h178l52 -173l53 -173c8.66699 30.667 43.334 146 104.001 346h174z" />
    <glyph glyph-name="z" unicode="z" horiz-adv-x="539" 
d="M508 0h-484v122l255 266h-234v133h452v-123l-254 -267h265v-131z" />
    <glyph glyph-name="braceleft" unicode="{" horiz-adv-x="384" 
d="M347 -161c-15.333 -0.666992 -38.335 -1.00586 -69.002 -1.00586c-75.333 0 -124.666 18.333 -147.999 55c-15.333 24.667 -23 57.667 -23 99v146c0 32 -4.83301 57.333 -14.5 76s-28.5 31.334 -56.5 38.001v64c10 2 18.833 5.33301 26.5 10s14 9.5 19 14.5
s9.33301 12.167 13 21.5s6.33398 17 8.00098 23s3 15.167 4 27.5s1.5 21 1.5 26v27.5v25c0 8 -0.333008 19.5 -1 34.5s-1 26.167 -1 33.5c0 38.667 4 70 12 94c10.667 28 28.334 47.833 53.001 59.5s60 17.5 106 17.5h70v-74c-36.667 -5.33301 -59 -10.666 -67 -15.999
c-14.667 -10 -22 -30.333 -22 -61v-155c0 -37.333 -5 -67.166 -15 -89.499s-30.333 -39.166 -61 -50.499v-1c43.333 -17.333 68.666 -55.333 75.999 -114c2 -17.333 2.33301 -51.666 1 -102.999s0.666992 -83.666 6 -96.999c6.66699 -28.667 34 -43.667 82 -45v-85z" />
    <glyph glyph-name="bar" unicode="|" horiz-adv-x="368" 
d="M256 -215h-145v955h145v-955z" />
    <glyph glyph-name="braceright" unicode="}" horiz-adv-x="384" 
d="M37 -161l-1.00098 -0.000976562c15.333 -0.666992 38.333 -1 69 -1c75.333 0 125 18.333 149 55c14.667 23.333 22 56.333 22 99v146c0 32 4.83301 57.333 14.5 76s28.834 31.334 57.501 38.001v64c-10 2 -19 5.33301 -27 10s-14.5 9.5 -19.5 14.5
s-9.33301 12.167 -13 21.5s-6.33398 17 -8.00098 23s-3 15.167 -4 27.5s-1.5 20.833 -1.5 25.5v28v25c0 7.33301 0.5 18.666 1.5 33.999s1.5 26.666 1.5 33.999c0 39.333 -4.33301 70.666 -13 93.999c-10 27.333 -27.5 47 -52.5 59s-60.167 18 -105.5 18h-71v-74
c36.667 -5.33301 59 -10.666 67 -15.999c14.667 -10 22 -30.333 22 -61v-155c0 -37.333 5 -67.166 15 -89.499s30.667 -39.166 62 -50.499v-1c-44.667 -18 -70 -56 -76 -114c-2 -18 -2.5 -52.333 -1.5 -103s-0.833008 -83 -5.5 -97
c-3.33301 -15.333 -13.166 -26.5 -29.499 -33.5s-33.833 -10.833 -52.5 -11.5v-85z" />
    <glyph glyph-name="asciitilde" unicode="~" horiz-adv-x="666" 
d="M582 472c-32 -80 -79.3359 -124.998 -142.003 -134.998c-7.33301 -1.33301 -21 0.5 -41 5.5s-35 9.83301 -45 14.5c-2 0.666992 -13.667 6 -35 16s-39.166 17.5 -53.499 22.5s-26.166 7.5 -35.499 7.5c-24 0 -48 -23.667 -72 -71c-16 15.333 -40.667 37.666 -74 66.999
c14.667 39.333 32.834 70.666 54.501 93.999s51.167 38 88.5 44c12 2.66699 30.667 0 56 -8c6.66699 -2 31.167 -12 73.5 -30s68.833 -27 79.5 -27c12 0 23 4 33 12s17.5 16 22.5 24s10.5 18.667 16.5 32z" />
    <glyph glyph-name="nbspace" unicode="&#xa0;" horiz-adv-x="296" 
 />
    <glyph glyph-name="currency" unicode="&#xa4;" horiz-adv-x="648" 
d="M584 531l-65.999 -66c24 -38 36 -79 36 -123s-12.333 -85.333 -37 -124l66 -67l-68 -69l-67 67c-36 -25.333 -77.333 -38 -124 -38s-88.334 12.333 -125.001 37l-66 -66l-69 69l65 67c-24.667 41.333 -37 82.333 -37 123c0 45.333 12.667 87 38 125l-67 66l70 69l66 -66
c40.667 24 81.667 36 123 36c45.333 0 87 -12 125 -36l68 66zM439.001 341c0 32 -11.333 59.333 -34 82s-50 34 -82 34s-59.167 -11.5 -81.5 -34.5s-33.5 -50.5 -33.5 -82.5c0 -31.333 11.167 -58.333 33.5 -81s49.5 -34 81.5 -34s59.333 11.333 82 34s34 50 34 82z" />
    <glyph glyph-name="brokenbar" unicode="&#xa6;" horiz-adv-x="368" 
d="M256 335h-145v362h145v-362zM256 -172h-145v343h145v-343z" />
    <glyph glyph-name="section" unicode="&#xa7;" horiz-adv-x="647" 
d="M585 278c0 -35.333 -8 -64.5039 -24 -87.5039s-40.333 -43.167 -73 -60.5c36.667 -35.333 55 -75 55 -119c0 -55.333 -21.833 -98.333 -65.5 -129s-94.5 -46 -152.5 -46c-66.667 0 -120.667 16.833 -162 50.5s-62.333 82.834 -63 147.501h140
c0.666992 -21.333 9.16699 -40 25.5 -56s35.166 -24 56.499 -24c18.667 0 35.5 4.66699 50.5 14s22.5 22.666 22.5 39.999c0 19.333 -11.5 36.5 -34.5 51.5s-51 28.5 -84 40.5s-66 25.833 -99 41.5s-61 37.834 -84 66.501s-34.5 62.667 -34.5 102
c0 33.333 9.16699 62.5 27.5 87.5s43.5 44.167 75.5 57.5c-33.333 33.333 -50 70.333 -50 111c0 54.667 22.667 96.834 68 126.501s97 44.5 155 44.5s106.5 -17.5 145.5 -52.5s58.833 -81.5 59.5 -139.5h-138c-1.33301 22.667 -8.5 41.334 -21.5 56.001s-30.5 22 -52.5 22
c-16 0 -31.167 -5.16699 -45.5 -15.5s-21.5 -23.166 -21.5 -38.499c0 -18 11.167 -34.167 33.5 -48.5s49.333 -27.5 81 -39.5s63.334 -25.667 95.001 -41s58.667 -36.833 81 -64.5s33.5 -60.167 33.5 -97.5zM451 251.996c0 21.333 -13.667 38.999 -41 52.999
c-96 49.333 -152 75.666 -168 78.999c-14 -2.66699 -26 -8.66699 -36 -18s-15 -20.666 -15 -33.999c0 -23.333 16.667 -43 50 -59l49 -25l61 -30.5c17.333 -8.33301 34.333 -15.5 51 -21.5c32.667 12.667 49 31.334 49 56.001z" />
    <glyph glyph-name="dieresis" unicode="&#xa8;" horiz-adv-x="397" 
d="M391 594h-151v127h151v-127zM156 594h-150v127h150v-127z" />
    <glyph glyph-name="copyright" unicode="&#xa9;" horiz-adv-x="799" 
d="M776 359c0 -104 -36.834 -192.5 -110.501 -265.5s-162.5 -109.5 -266.5 -109.5s-192.833 36.5 -266.5 109.5s-110.5 161.5 -110.5 265.5c0 104.667 36.833 193.667 110.5 267s162.834 110 267.501 110c104 0 192.667 -36.667 266 -110s110 -162.333 110 -267z
M690.999 359c0 84.667 -28.167 156 -84.5 214s-125.166 87 -206.499 87c-83.333 0 -153 -28.833 -209 -86.5s-84 -129.167 -84 -214.5s28 -156.833 84 -214.5s125.667 -86.5 209 -86.5c81.333 0 150.166 29 206.499 87s84.5 129.333 84.5 214zM597.999 303
c-6.66699 -41.333 -21.334 -74.666 -44.001 -99.999c-35.333 -41.333 -83 -62 -143 -62c-62.667 0 -113.834 20.833 -153.501 62.5s-59.5 94.5 -59.5 158.5s19.333 116.5 58 157.5s89.334 61.5 152.001 61.5c74.667 0 129 -28.333 163 -85
c12.667 -20.667 20.667 -43.334 24 -68.001h-99c-8 47.333 -37.333 71 -88 71c-33.333 0 -59.166 -12.833 -77.499 -38.5s-27.5 -59.167 -27.5 -100.5c0 -46 13.667 -82 41 -108c20 -18.667 42.333 -28 67 -28c22 0 41.333 7.66699 58 23s26 34 28 56h101z" />
    <glyph glyph-name="guillemotleft" unicode="&#xab;" horiz-adv-x="554" 
d="M472 62l-170 124.999v149c104 78.667 160.667 121.334 170 128.001v-134l-47.5 -33.5l-47.5 -34.5l47.5 -35l47.5 -34v-131zM247 61.999l-169 125v149l169 128v-134l-42 -30l-53 -38l95 -69v-131z" />
    <glyph glyph-name="logicalnot" unicode="&#xac;" horiz-adv-x="597" 
d="M543 69h-141v168h-349v134h490v-302z" />
    <glyph glyph-name="registered" unicode="&#xae;" horiz-adv-x="799" 
d="M776 359c0 -104 -36.834 -192.5 -110.501 -265.5s-162.5 -109.5 -266.5 -109.5s-192.833 36.5 -266.5 109.5s-110.5 161.5 -110.5 265.5c0 104.667 36.833 193.667 110.5 267s162.834 110 267.501 110c103.333 0 191.833 -36.833 265.5 -110.5s110.5 -162.5 110.5 -266.5
zM690.999 359c0 84.667 -28.167 156 -84.5 214s-125.166 87 -206.499 87c-83.333 0 -153 -28.833 -209 -86.5s-84 -129.167 -84 -214.5s28 -156.833 84 -214.5s125.667 -86.5 209 -86.5c81.333 0 150.166 29 206.499 87s84.5 129.333 84.5 214zM591.999 152h-108.994
c-5.33301 8.66699 -9.5 17.5 -12.5 26.5s-6 21.167 -9 36.5s-5.5 26.333 -7.5 33c-6.66699 25.333 -14.667 42.833 -24 52.5s-26.333 14.5 -51 14.5h-53v-163h-94v417h204c8.66699 0 19.667 -0.666992 33 -2c80.667 -8.66699 121 -49.667 121 -123
c0 -56 -29 -91.333 -87 -106c15.333 -14.667 26.166 -26.667 32.499 -36s12.166 -23.666 17.499 -42.999c2 -6.66699 4.16699 -14.834 6.5 -24.501s4.16602 -16.667 5.49902 -21s3.16602 -10 5.49902 -17s5.16602 -14 8.49902 -21s7.66602 -14.833 12.999 -23.5z
M491.005 437c0 18.667 -8.83398 32.333 -26.501 41s-34.167 13 -49.5 13h-89v-103h54h41c14.667 2 25.834 3.83301 33.501 5.5s15.667 6.16699 24 13.5s12.5 17.333 12.5 30z" />
    <glyph glyph-name="degree" unicode="&#xb0;" horiz-adv-x="431" 
d="M365 562c0 -41.333 -14.667 -76.666 -44 -105.999s-64.666 -44 -105.999 -44s-76.5 14.667 -105.5 44s-43.5 64.666 -43.5 105.999s14.5 76.5 43.5 105.5s64.167 43.5 105.5 43.5s76.666 -14.667 105.999 -44s44 -64.333 44 -105zM292 560
c0 21.333 -7.50098 39.833 -22.501 55.5s-33.5 23.5 -55.5 23.5c-21.333 0 -39.333 -7.83301 -54 -23.5s-22 -34.167 -22 -55.5c0.666992 -22 8 -40 22 -54s32 -21 54 -21c22.667 0 41.334 7 56.001 21s22 32 22 54z" />
    <glyph glyph-name="plusminus" unicode="&#xb1;" horiz-adv-x="669" 
d="M599 344h-212v-194h-106v194h-211v106h211v192h106v-192h212v-106zM599 -2h-529v106h529v-106z" />
    <glyph glyph-name="acute" unicode="&#xb4;" horiz-adv-x="397" 
d="M328 737l-145 -154h-114l79 154h180z" />
    <glyph glyph-name="mu" unicode="&#xb5;" horiz-adv-x="636" 
d="M224 -182l-169 -0.000976562v703h174v-296c0 -28.667 6.33301 -52.667 19 -72s32.667 -29 60 -29c32.667 0 57 12.833 73 38.5s24 55.834 24 90.501v268h173v-521h-160v76c-24 -33.333 -49.5 -57 -76.5 -71s-60.167 -21 -99.5 -21c-8 0 -14 0.333008 -18 1v-167z" />
    <glyph glyph-name="paragraph" unicode="&#xb6;" horiz-adv-x="734" 
d="M633 591h-26v-65c0 -74.667 -0.166992 -186.667 -0.5 -336s-0.5 -261 -0.5 -335h-129v737h-90v-737h-130v458c-53.333 0.666992 -97 14.667 -131 42c-48 36 -72 88.667 -72 158v10c0 36 9.83301 70.167 29.5 102.5s45.5 55.833 77.5 70.5c36 16 80.333 24 133 24h338z
" />
    <glyph glyph-name="periodcentered" unicode="&#xb7;" horiz-adv-x="314" 
d="M252 237h-184v182h184v-182z" />
    <glyph glyph-name="cedilla" unicode="&#xb8;" horiz-adv-x="397" 
d="M324 -112c0 -30.667 -13.168 -53.833 -39.501 -69.5s-55.833 -23.5 -88.5 -23.5c-37.333 0 -80 8.33301 -128 25c10.667 24 19 42 25 54c38 -14.667 65.667 -22 83 -22c27.333 0 41 10.667 41 32c0 20 -11 30 -33 30c-11.333 0 -23.666 -2.66699 -36.999 -8l-21.5 12.5
c-9.66699 5.66699 -16.5 9.83398 -20.5 12.501l48 79c7.33301 0 18.5 -0.666992 33.5 -2l33.5 -3l-15 -24.5l-15 -24.5c12.667 2.66699 29 4 49 4c24 0 44.167 -6.33301 60.5 -19s24.5 -30.334 24.5 -53.001z" />
    <glyph glyph-name="guillemotright" unicode="&#xbb;" horiz-adv-x="554" 
d="M477 189l-85.499 -63.499l-84.5 -63.5v132l95 71c-42.667 29.333 -74.334 51.666 -95.001 66.999v132l170 -127v-148zM252.001 189.001l-85.499 -63.499l-84.5 -63.5v132l95 71c-42.667 29.333 -74.334 51.666 -95.001 66.999v132l170 -127v-148z" />
    <glyph glyph-name="Aacute" unicode="&#xc1;" horiz-adv-x="730" 
d="M727 0h-197c-24 71.333 -38 114 -42 128h-252c-18.667 -57.333 -33 -100 -43 -128h-191l126 345.5l137 374.5h200zM447 260l-82 277h-1l-42 -138.5l-42 -138.5h167zM494 936l-145 -154h-114l79 154h180z" />
    <glyph glyph-name="Acircumflex" unicode="&#xc2;" horiz-adv-x="730" 
d="M727 0h-197c-24 71.333 -38 114 -42 128h-252c-18.667 -57.333 -33 -100 -43 -128h-191l126 345.5l137 374.5h200zM447 260l-82 277h-1l-42 -138.5l-42 -138.5h167zM555 782h-129l-61 85l-60 -85h-130l117 152h147z" />
    <glyph glyph-name="Adieresis" unicode="&#xc4;" horiz-adv-x="730" 
d="M727 0h-197c-24 71.333 -38 114 -42 128h-252c-18.667 -57.333 -33 -100 -43 -128h-191l126 345.5l137 374.5h200zM447 260l-82 277h-1l-42 -138.5l-42 -138.5h167zM557 793h-151v127h151v-127zM322 793h-150v127h150v-127z" />
    <glyph glyph-name="Ccedilla" unicode="&#xc7;" horiz-adv-x="757" 
d="M517 -112c0 -30.667 -13.167 -53.832 -39.5 -69.499s-55.833 -23.5 -88.5 -23.5c-37.333 0 -80 8.33301 -128 25c10.667 24 19 42 25 54c38 -14.667 65.667 -22 83 -22c27.333 0 41 10.667 41 32c0 20 -11 30 -33 30c-11.333 0 -23.666 -2.66699 -36.999 -8
c-4 2.66699 -10.833 6.83398 -20.5 12.501l-21.5 12.5l33 56c-92 13.333 -164.333 53.666 -217 120.999s-79 151.333 -79 252c0 108.667 32.5 198.667 97.5 270s149.5 107 253.5 107c115.333 0 204.333 -37 267 -111c36 -43.333 58 -98 66 -164h-187
c-6 38.667 -21.333 68.5 -46 89.5s-56.667 31.5 -96 31.5c-37.333 0 -68.666 -12.5 -93.999 -37.5s-42.833 -54 -52.5 -87s-14.5 -67.833 -14.5 -104.5c0 -64 13.5 -116.5 40.5 -157.5s69.167 -61.5 126.5 -61.5c16 0 30 3.33301 42 10c57.333 14 89.666 56.667 96.999 128
h191c-10.667 -90.667 -44.834 -161.667 -102.501 -213s-132.5 -77.333 -224.5 -78c-6 -9.33301 -11.333 -18 -16 -26c12.667 2.66699 29 4 49 4c24 0 44.167 -6.33301 60.5 -19s24.5 -30.334 24.5 -53.001z" />
    <glyph glyph-name="Eacute" unicode="&#xc9;" horiz-adv-x="704" 
d="M660 0h-585v720h574v-154h-381v-130h335v-143h-335v-140h392v-153zM491 936l-145 -154h-114l79 154h180z" />
    <glyph glyph-name="Edieresis" unicode="&#xcb;" horiz-adv-x="704" 
d="M660 0h-585v720h574v-154h-381v-130h335v-143h-335v-140h392v-153zM544 793h-151v127h151v-127zM309 793h-150v127h150v-127z" />
    <glyph glyph-name="Iacute" unicode="&#xcd;" horiz-adv-x="348" 
d="M272 0h-194v720h194v-720zM304 936l-145 -154h-114l79 154h180z" />
    <glyph glyph-name="Icircumflex" unicode="&#xce;" horiz-adv-x="348" 
d="M272 0h-194v720h194v-720zM364 782h-129l-61 85l-60 -85h-130l117 152h147z" />
    <glyph glyph-name="Oacute" unicode="&#xd3;" horiz-adv-x="810" 
d="M771 360c0 -67.333 -12.332 -127.667 -36.999 -181s-59.334 -96.333 -104.001 -129c-60.667 -45.333 -135.667 -68 -225 -68c-100.667 0 -183 28.333 -247 85c-78.667 69.333 -118 168 -118 296c0 111.333 33.333 201.5 100 270.5s155 103.5 265 103.5
c114 0 203.5 -35.667 268.5 -107s97.5 -161.333 97.5 -270zM576.001 359.999c0 64 -15 117.334 -45 160.001s-72 64 -126 64h-1c-54.667 0 -96.667 -21.333 -126 -64s-44 -96 -44 -160s14.667 -117.5 44 -160.5s71.666 -64.5 126.999 -64.5
c54.667 0 96.834 20.667 126.501 62s44.5 95.666 44.5 162.999zM544.001 936l-145 -154h-114l79 154h180z" />
    <glyph glyph-name="Ocircumflex" unicode="&#xd4;" horiz-adv-x="810" 
d="M771 360c0 -67.333 -12.332 -127.667 -36.999 -181s-59.334 -96.333 -104.001 -129c-60.667 -45.333 -135.667 -68 -225 -68c-100.667 0 -183 28.333 -247 85c-78.667 69.333 -118 168 -118 296c0 111.333 33.333 201.5 100 270.5s155 103.5 265 103.5
c114 0 203.5 -35.667 268.5 -107s97.5 -161.333 97.5 -270zM576.001 359.999c0 64 -15 117.334 -45 160.001s-72 64 -126 64h-1c-54.667 0 -96.667 -21.333 -126 -64s-44 -96 -44 -160s14.667 -117.5 44 -160.5s71.666 -64.5 126.999 -64.5
c54.667 0 96.834 20.667 126.501 62s44.5 95.666 44.5 162.999zM595.001 782h-129l-61 85l-60 -85h-130l117 152h147z" />
    <glyph glyph-name="Odieresis" unicode="&#xd6;" horiz-adv-x="810" 
d="M771 360c0 -67.333 -12.332 -127.667 -36.999 -181s-59.334 -96.333 -104.001 -129c-60.667 -45.333 -135.667 -68 -225 -68c-100.667 0 -183 28.333 -247 85c-78.667 69.333 -118 168 -118 296c0 111.333 33.333 201.5 100 270.5s155 103.5 265 103.5
c114 0 203.5 -35.667 268.5 -107s97.5 -161.333 97.5 -270zM576.001 359.999c0 64 -15 117.334 -45 160.001s-72 64 -126 64h-1c-54.667 0 -96.667 -21.333 -126 -64s-44 -96 -44 -160s14.667 -117.5 44 -160.5s71.666 -64.5 126.999 -64.5
c54.667 0 96.834 20.667 126.501 62s44.5 95.666 44.5 162.999zM597.001 793h-151v127h151v-127zM362.001 793h-150v127h150v-127z" />
    <glyph glyph-name="multiply" unicode="&#xd7;" horiz-adv-x="669" 
d="M579 125l-75 -75l-170 170l-171 -170l-74 73l170 171l-169 170l74 75l170 -169l170 170l75 -75l-170 -170z" />
    <glyph glyph-name="Uacute" unicode="&#xda;" horiz-adv-x="788" 
d="M720 297c0 -86 -16.332 -153.331 -48.999 -201.998c-50.667 -75.333 -142.334 -113 -275.001 -113c-144.667 0 -241 43.667 -289 131c-25.333 45.333 -38 110.666 -38 195.999v411h194v-447c0 -40 12.167 -73 36.5 -99s56.5 -39 96.5 -39c42 0 74.167 12.167 96.5 36.5
s33.5 58.166 33.5 101.499v447h194v-423zM533.001 936.002l-145 -154h-114l79 154h180z" />
    <glyph glyph-name="Udieresis" unicode="&#xdc;" horiz-adv-x="788" 
d="M720 297c0 -86 -16.332 -153.331 -48.999 -201.998c-50.667 -75.333 -142.334 -113 -275.001 -113c-144.667 0 -241 43.667 -289 131c-25.333 45.333 -38 110.666 -38 195.999v411h194v-447c0 -40 12.167 -73 36.5 -99s56.5 -39 96.5 -39c42 0 74.167 12.167 96.5 36.5
s33.5 58.166 33.5 101.499v447h194v-423zM586.001 793.002h-151v127h151v-127zM351.001 793.002h-150v127h150v-127z" />
    <glyph glyph-name="Yacute" unicode="&#xdd;" horiz-adv-x="723" 
d="M726 720l-268 -450v-270h-193v268l-268 452h217l149 -282l147 282h216zM501 936l-145 -154h-114l79 154h180z" />
    <glyph glyph-name="germandbls" unicode="&#xdf;" horiz-adv-x="644" 
d="M606 214c0 -71.333 -20.667 -125.83 -62 -163.497s-97.333 -57.167 -168 -58.5c-35.333 0 -62 1.33301 -80 4c0 26.667 2 68 6 124c1.33301 -0.666992 3.66602 -1 6.99902 -1c2 0 5 0.166992 9 0.5s6.66699 0.5 8 0.5c34 0 59.833 10.667 77.5 32
s26.5 49.666 26.5 84.999c0 29.333 -8.5 53.333 -25.5 72s-40.5 29 -70.5 31c-4.66699 0.666992 -11.667 1 -21 1h-17v105c37.333 4 63 11.333 77 22c18 14.667 27 34.667 27 60c0 24 -7.66699 43 -23 57s-35.666 21 -60.999 21c-27.333 0 -47.5 -9 -60.5 -27
s-19.5 -40 -19.5 -66v-513h-173v488c0 166 85 249 255 249c58 0 107.667 -11.333 149 -34c66 -34.667 99 -87 99 -157c0 -66.667 -31 -114 -93 -142c43.333 -12.667 76.333 -35.834 99 -69.501s34 -73.834 34 -120.501z" />
    <glyph glyph-name="aacute" unicode="&#xe1;" horiz-adv-x="614" 
d="M589 0l-171.998 0.00390625c-12.667 13.333 -21 32.666 -25 57.999c-44.667 -49.333 -105.334 -74 -182.001 -74c-52.667 0 -95.5 13.333 -128.5 40s-49.5 64 -49.5 112c0 65.333 29 111.333 87 138c8.66699 4 17.667 7.5 27 10.5s20.166 5.83301 32.499 8.5l30 6.5
c7.66699 1.66699 19.334 3.66699 35.001 6s26.834 4.16602 33.501 5.49902c8.66699 1.33301 23.667 4.66602 45 9.99902c40.667 12 61 27.333 61 46c0 37.333 -25.667 56 -77 56c-22 0 -41.833 -5.83301 -59.5 -17.5s-26.834 -27.834 -27.501 -48.501h-163
c1.33301 51.333 18.666 92 51.999 122c41.333 37.333 108.333 56 201 56c61.333 0 110.5 -7 147.5 -21s62.833 -37.667 77.5 -71c12 -28.667 18 -69 18 -121v-188c0 -34 12.333 -78.667 37 -134zM384.002 244.004c-20 -11.333 -55.333 -22.667 -106 -34
c-26.667 -6 -46.167 -13.667 -58.5 -23s-18.5 -23.333 -18.5 -42c0 -16.667 6.5 -29.667 19.5 -39s30.5 -14 52.5 -14c30.667 0 56.5 9.5 77.5 28.5s31.833 44.167 32.5 75.5c0 5.33301 0.166992 13.333 0.5 24s0.5 18.667 0.5 24zM450.002 737.003l-145 -154h-114l79 154
h180z" />
    <glyph glyph-name="acircumflex" unicode="&#xe2;" horiz-adv-x="614" 
d="M589 0l-171.998 0.00390625c-12.667 13.333 -21 32.666 -25 57.999c-44.667 -49.333 -105.334 -74 -182.001 -74c-52.667 0 -95.5 13.333 -128.5 40s-49.5 64 -49.5 112c0 65.333 29 111.333 87 138c8.66699 4 17.667 7.5 27 10.5s20.166 5.83301 32.499 8.5l30 6.5
c7.66699 1.66699 19.334 3.66699 35.001 6s26.834 4.16602 33.501 5.49902c8.66699 1.33301 23.667 4.66602 45 9.99902c40.667 12 61 27.333 61 46c0 37.333 -25.667 56 -77 56c-22 0 -41.833 -5.83301 -59.5 -17.5s-26.834 -27.834 -27.501 -48.501h-163
c1.33301 51.333 18.666 92 51.999 122c41.333 37.333 108.333 56 201 56c61.333 0 110.5 -7 147.5 -21s62.833 -37.667 77.5 -71c12 -28.667 18 -69 18 -121v-188c0 -34 12.333 -78.667 37 -134zM384.002 244.004c-20 -11.333 -55.333 -22.667 -106 -34
c-26.667 -6 -46.167 -13.667 -58.5 -23s-18.5 -23.333 -18.5 -42c0 -16.667 6.5 -29.667 19.5 -39s30.5 -14 52.5 -14c30.667 0 56.5 9.5 77.5 28.5s31.833 44.167 32.5 75.5c0 5.33301 0.166992 13.333 0.5 24s0.5 18.667 0.5 24zM497.002 583.003h-129l-61 85l-60 -85
h-130l117 152h147z" />
    <glyph glyph-name="adieresis" unicode="&#xe4;" horiz-adv-x="614" 
d="M589 0l-171.998 0.00390625c-12.667 13.333 -21 32.666 -25 57.999c-44.667 -49.333 -105.334 -74 -182.001 -74c-52.667 0 -95.5 13.333 -128.5 40s-49.5 64 -49.5 112c0 65.333 29 111.333 87 138c8.66699 4 17.667 7.5 27 10.5s20.166 5.83301 32.499 8.5l30 6.5
c7.66699 1.66699 19.334 3.66699 35.001 6s26.834 4.16602 33.501 5.49902c8.66699 1.33301 23.667 4.66602 45 9.99902c40.667 12 61 27.333 61 46c0 37.333 -25.667 56 -77 56c-22 0 -41.833 -5.83301 -59.5 -17.5s-26.834 -27.834 -27.501 -48.501h-163
c1.33301 51.333 18.666 92 51.999 122c41.333 37.333 108.333 56 201 56c61.333 0 110.5 -7 147.5 -21s62.833 -37.667 77.5 -71c12 -28.667 18 -69 18 -121v-188c0 -34 12.333 -78.667 37 -134zM384.002 244.004c-20 -11.333 -55.333 -22.667 -106 -34
c-26.667 -6 -46.167 -13.667 -58.5 -23s-18.5 -23.333 -18.5 -42c0 -16.667 6.5 -29.667 19.5 -39s30.5 -14 52.5 -14c30.667 0 56.5 9.5 77.5 28.5s31.833 44.167 32.5 75.5c0 5.33301 0.166992 13.333 0.5 24s0.5 18.667 0.5 24zM499.002 594.003h-151v127h151v-127z
M264.002 594.003h-150v127h150v-127z" />
    <glyph glyph-name="ccedilla" unicode="&#xe7;" horiz-adv-x="612" 
d="M444 -112c0 -30.667 -13.168 -53.833 -39.501 -69.5s-55.833 -23.5 -88.5 -23.5c-37.333 0 -80 8.33301 -128 25c10.667 24 19 42 25 54c38 -14.667 65.667 -22 83 -22c27.333 0 41 10.667 41 32c0 20 -11 30 -33 30c-11.333 0 -23.666 -2.66699 -36.999 -8
c-4 2.66699 -10.833 6.83398 -20.5 12.501l-21.5 12.5c16 28 27.333 47 34 57c-68.667 10 -123.5 39.167 -164.5 87.5s-61.5 108.5 -61.5 180.5c0 84 25.833 151.5 77.5 202.5s120.167 76.5 205.5 76.5c70.667 0 129.334 -17.5 176.001 -52.5s74 -85.833 82 -152.5
c-18.667 0 -47 -0.166992 -85 -0.5s-66.667 -0.5 -86 -0.5c-3.33301 20.667 -12.166 36.834 -26.499 48.501s-31.833 17.5 -52.5 17.5c-38.667 0 -67.667 -13 -87 -39s-29 -59.333 -29 -100s8.66699 -74.834 26 -102.501s45 -41.5 83 -41.5c8 0 16 1 24 3
c37.333 8.66699 58.666 37.667 63.999 87c19.333 0 48.166 -0.166992 86.499 -0.5s66.833 -0.5 85.5 -0.5c-6 -62.667 -30 -113 -72 -151c-44.667 -40.667 -104 -62.667 -178 -66c-6 -8.66699 -11.667 -18 -17 -28c12.667 2.66699 29 4 49 4c24 0 44.167 -6.33301 60.5 -19
s24.5 -30.334 24.5 -53.001z" />
    <glyph glyph-name="eacute" unicode="&#xe9;" horiz-adv-x="629" 
d="M590 217l-382.999 0.000976562c1.33301 -34 12.666 -61.833 33.999 -83.5s49 -32.5 83 -32.5c44.667 0 75 19.333 91 58h168c-10.667 -41.333 -32 -77 -64 -107c-49.333 -45.333 -118 -68 -206 -68c-83.333 0 -150.666 25 -201.999 75s-77 116.667 -77 200
c0 81.333 25.833 147.666 77.5 198.999s118.167 77 199.5 77c111.333 0 191.666 -44.333 240.999 -133c25.333 -45.333 38 -107 38 -185zM420.001 315.001c-1.33301 29.333 -11.668 54 -31.001 74s-43.666 30 -72.999 30c-32 0 -57.5 -9.33301 -76.5 -28
s-29.5 -44 -31.5 -76h212zM463.999 737.001l-145 -154h-114l79 154h180z" />
    <glyph glyph-name="edieresis" unicode="&#xeb;" horiz-adv-x="629" 
d="M590 217l-382.999 0.000976562c1.33301 -34 12.666 -61.833 33.999 -83.5s49 -32.5 83 -32.5c44.667 0 75 19.333 91 58h168c-10.667 -41.333 -32 -77 -64 -107c-49.333 -45.333 -118 -68 -206 -68c-83.333 0 -150.666 25 -201.999 75s-77 116.667 -77 200
c0 81.333 25.833 147.666 77.5 198.999s118.167 77 199.5 77c111.333 0 191.666 -44.333 240.999 -133c25.333 -45.333 38 -107 38 -185zM420.001 315.001c-1.33301 29.333 -11.668 54 -31.001 74s-43.666 30 -72.999 30c-32 0 -57.5 -9.33301 -76.5 -28
s-29.5 -44 -31.5 -76h212zM506.999 594.001h-151v127h151v-127zM271.999 594.001h-150v127h150v-127z" />
    <glyph glyph-name="iacute" unicode="&#xed;" horiz-adv-x="298" 
d="M235 0h-173v521h173v-521zM279 737l-145 -154h-114l79 154h180z" />
    <glyph glyph-name="icircumflex" unicode="&#xee;" horiz-adv-x="298" 
d="M235 0h-173v521h173v-521zM339 583h-129l-61 85l-60 -85h-130l117 152h147z" />
    <glyph glyph-name="oacute" unicode="&#xf3;" horiz-adv-x="633" 
d="M597 261c0 -85.333 -26 -153 -78 -203s-120 -75 -204 -75c-83.333 0 -150.833 24.833 -202.5 74.5s-77.5 116.5 -77.5 200.5s25.5 151.167 76.5 201.5s118.5 75.5 202.5 75.5c86 0 154.667 -25.167 206 -75.5s77 -116.5 77 -198.5zM422 261
c0 47.333 -9.33301 84.5 -28 111.5s-44.667 40.5 -78 40.5c-34.667 0 -61.167 -13.833 -79.5 -41.5s-27.5 -64.5 -27.5 -110.5c0 -50.667 9.33301 -89 28 -115s44.667 -39 78 -39c34 0 60.333 13 79 39s28 64.333 28 115zM456 737l-145 -154h-114l79 154h180z" />
    <glyph glyph-name="ocircumflex" unicode="&#xf4;" horiz-adv-x="633" 
d="M597 261c0 -85.333 -26 -153 -78 -203s-120 -75 -204 -75c-83.333 0 -150.833 24.833 -202.5 74.5s-77.5 116.5 -77.5 200.5s25.5 151.167 76.5 201.5s118.5 75.5 202.5 75.5c86 0 154.667 -25.167 206 -75.5s77 -116.5 77 -198.5zM422 261
c0 47.333 -9.33301 84.5 -28 111.5s-44.667 40.5 -78 40.5c-34.667 0 -61.167 -13.833 -79.5 -41.5s-27.5 -64.5 -27.5 -110.5c0 -50.667 9.33301 -89 28 -115s44.667 -39 78 -39c34 0 60.333 13 79 39s28 64.333 28 115zM506 583h-129l-61 85l-60 -85h-130l117 152h147z
" />
    <glyph glyph-name="odieresis" unicode="&#xf6;" horiz-adv-x="633" 
d="M597 261c0 -85.333 -26 -153 -78 -203s-120 -75 -204 -75c-83.333 0 -150.833 24.833 -202.5 74.5s-77.5 116.5 -77.5 200.5s25.5 151.167 76.5 201.5s118.5 75.5 202.5 75.5c86 0 154.667 -25.167 206 -75.5s77 -116.5 77 -198.5zM422 261
c0 47.333 -9.33301 84.5 -28 111.5s-44.667 40.5 -78 40.5c-34.667 0 -61.167 -13.833 -79.5 -41.5s-27.5 -64.5 -27.5 -110.5c0 -50.667 9.33301 -89 28 -115s44.667 -39 78 -39c34 0 60.333 13 79 39s28 64.333 28 115zM509 594h-151v127h151v-127zM274 594h-150v127h150
v-127z" />
    <glyph glyph-name="divide" unicode="&#xf7;" horiz-adv-x="620" 
d="M370 369h-120v119h120v-119zM556 184h-492v118h492v-118zM370 -2h-120v119h120v-119z" />
    <glyph glyph-name="uacute" unicode="&#xfa;" horiz-adv-x="636" 
d="M578 0l-160.001 -0.000976562v76c-24 -33.333 -49.5 -57 -76.5 -71s-60.167 -21 -99.5 -21c-87.333 0 -143.666 33.667 -168.999 101c-12 30.667 -18 70.667 -18 120v316h174v-296c0 -28.667 6.33301 -52.667 19 -72s32.667 -29 60 -29c32.667 0 57 12.833 73 38.5
s24 55.834 24 90.501v268h173v-521zM446.999 736.999l-145 -154h-114l79 154h180z" />
    <glyph glyph-name="udieresis" unicode="&#xfc;" horiz-adv-x="636" 
d="M578 0l-160.001 -0.000976562v76c-24 -33.333 -49.5 -57 -76.5 -71s-60.167 -21 -99.5 -21c-87.333 0 -143.666 33.667 -168.999 101c-12 30.667 -18 70.667 -18 120v316h174v-296c0 -28.667 6.33301 -52.667 19 -72s32.667 -29 60 -29c32.667 0 57 12.833 73 38.5
s24 55.834 24 90.501v268h173v-521zM509.999 593.999h-151v127h151v-127zM274.999 593.999h-150v127h150v-127z" />
    <glyph glyph-name="yacute" unicode="&#xfd;" horiz-adv-x="573" 
d="M565 521l-52 -152.5l-62.5 -178.5l-53.5 -152c-24 -71.333 -48.333 -122 -73 -152c-24 -30 -52 -49 -84 -57c-20.667 -6 -41 -9 -61 -9c-56.667 0 -94.334 1 -113.001 3v130c4.66699 0 12.5 -0.5 23.5 -1.5s18.833 -1.5 23.5 -1.5c15.333 0 27.5 1.83301 36.5 5.5
s15.667 10.667 20 21s7 19 8 26s2.16699 19.5 3.5 37.5l-13 35l-87 235.5l-77 210.5h178l52 -173l53 -173c8.66699 30.667 43.334 146 104.001 346h174zM436 737l-145 -154h-114l79 154h180z" />
    <glyph glyph-name="Abreve" unicode="&#x102;" horiz-adv-x="730" 
d="M727 0h-197c-24 71.333 -38 114 -42 128h-252c-18.667 -57.333 -33 -100 -43 -128h-191l126 345.5l137 374.5h200zM447 260l-82 277h-1l-42 -138.5l-42 -138.5h167zM538 935c-5.33301 -48 -23.666 -85.001 -54.999 -111.001s-71.333 -39 -120 -39
c-49.333 0 -89.333 12.833 -120 38.5s-48 62.834 -52 111.501h84c7.33301 -42 37.666 -63 90.999 -63c50 0 79.333 21 88 63h84z" />
    <glyph glyph-name="abreve" unicode="&#x103;" horiz-adv-x="614" 
d="M589 0l-171.998 0.00390625c-12.667 13.333 -21 32.666 -25 57.999c-44.667 -49.333 -105.334 -74 -182.001 -74c-52.667 0 -95.5 13.333 -128.5 40s-49.5 64 -49.5 112c0 65.333 29 111.333 87 138c8.66699 4 17.667 7.5 27 10.5s20.166 5.83301 32.499 8.5l30 6.5
c7.66699 1.66699 19.334 3.66699 35.001 6s26.834 4.16602 33.501 5.49902c8.66699 1.33301 23.667 4.66602 45 9.99902c40.667 12 61 27.333 61 46c0 37.333 -25.667 56 -77 56c-22 0 -41.833 -5.83301 -59.5 -17.5s-26.834 -27.834 -27.501 -48.501h-163
c1.33301 51.333 18.666 92 51.999 122c41.333 37.333 108.333 56 201 56c61.333 0 110.5 -7 147.5 -21s62.833 -37.667 77.5 -71c12 -28.667 18 -69 18 -121v-188c0 -34 12.333 -78.667 37 -134zM384.002 244.004c-20 -11.333 -55.333 -22.667 -106 -34
c-26.667 -6 -46.167 -13.667 -58.5 -23s-18.5 -23.333 -18.5 -42c0 -16.667 6.5 -29.667 19.5 -39s30.5 -14 52.5 -14c30.667 0 56.5 9.5 77.5 28.5s31.833 44.167 32.5 75.5c0 5.33301 0.166992 13.333 0.5 24s0.5 18.667 0.5 24zM480.002 736.003
c-5.33301 -48 -23.666 -85.001 -54.999 -111.001s-71.333 -39 -120 -39c-49.333 0 -89.333 12.833 -120 38.5s-48 62.834 -52 111.501h84c7.33301 -42 37.666 -63 90.999 -63c50 0 79.333 21 88 63h84z" />
    <glyph glyph-name="Aogonek" unicode="&#x104;" horiz-adv-x="730" 
d="M727 0c-24 0 -45.499 -5.66602 -64.499 -16.999s-28.5 -26 -28.5 -44c0 -22.667 14.333 -34 43 -34c13.333 0 26.666 2 39.999 6v-85c-31.333 -9.33301 -67.333 -14 -108 -14c-38 0 -69.667 8.16699 -95 24.5s-38 39.166 -38 68.499c0 34 18 65.667 54 95
c-24 71.333 -38 114 -42 128h-252c-18.667 -57.333 -33 -100 -43 -128h-191l126 345.5l137 374.5h200zM447.001 260.001l-82 277h-1l-42 -138.5l-42 -138.5h167z" />
    <glyph glyph-name="aogonek" unicode="&#x105;" horiz-adv-x="614" 
d="M591 -174c-31.333 -9.33301 -67.3301 -13.9971 -107.997 -13.9971c-38 0 -69.667 8.16699 -95 24.5s-38 39.166 -38 68.499c0 37.333 21.667 69.666 65 96.999c-11.333 14.667 -19 33.334 -23 56.001c-44.667 -49.333 -105.334 -74 -182.001 -74
c-52.667 0 -95.5 13.333 -128.5 40s-49.5 64 -49.5 112c0 65.333 29 111.333 87 138c8.66699 4 17.667 7.5 27 10.5s20.166 5.83301 32.499 8.5l30 6.5c7.66699 1.66699 19.334 3.66699 35.001 6s26.834 4.16602 33.501 5.49902c8.66699 1.33301 23.667 4.66602 45 9.99902
c40.667 12 61 27.333 61 46c0 37.333 -25.667 56 -77 56c-22 0 -41.833 -5.83301 -59.5 -17.5s-26.834 -27.834 -27.501 -48.501h-163c1.33301 51.333 18.666 92 51.999 122c41.333 37.333 108.333 56 201 56c61.333 0 110.5 -7 147.5 -21s62.833 -37.667 77.5 -71
c12 -28.667 18 -69 18 -121v-188c0 -34 12.333 -78.667 37 -134c-20 -0.666992 -38.5 -6.66699 -55.5 -18s-25.5 -25.666 -25.5 -42.999c0 -22.667 14.333 -34 43 -34c13.333 0 26.666 2 39.999 6v-85zM384.003 244.003c-20 -11.333 -55.333 -22.667 -106 -34
c-26.667 -6 -46.167 -13.667 -58.5 -23s-18.5 -23.333 -18.5 -42c0 -16.667 6.5 -29.667 19.5 -39s30.5 -14 52.5 -14c30.667 0 56.5 9.5 77.5 28.5s31.833 44.167 32.5 75.5c0 5.33301 0.166992 13.333 0.5 24s0.5 18.667 0.5 24z" />
    <glyph glyph-name="Cacute" unicode="&#x106;" horiz-adv-x="757" 
d="M726 273c-10.667 -90.667 -45.001 -161.834 -103.001 -213.501s-133 -77.5 -225 -77.5c-111.333 0 -199.666 34.833 -264.999 104.5s-98 160.834 -98 273.501c0 108.667 32.5 198.667 97.5 270s149.5 107 253.5 107c115.333 0 204.333 -37 267 -111
c36 -43.333 58 -98 66 -164h-187c-6 38.667 -21.333 68.5 -46 89.5s-56.667 31.5 -96 31.5c-37.333 0 -68.666 -12.5 -93.999 -37.5s-42.833 -54 -52.5 -87s-14.5 -67.833 -14.5 -104.5c0 -64 13.5 -116.5 40.5 -157.5s69.167 -61.5 126.5 -61.5c16 0 30 3.33301 42 10
c57.333 14 89.666 56.667 96.999 128h191zM527.999 936l-145 -154h-114l79 154h180z" />
    <glyph glyph-name="cacute" unicode="&#x107;" horiz-adv-x="612" 
d="M577 201c-6 -62.667 -30 -113 -72 -151c-48 -44 -112.667 -66 -194 -66c-82 0 -148.833 25 -200.5 75s-77.5 115.667 -77.5 197c0 84 25.833 151.5 77.5 202.5s120.167 76.5 205.5 76.5c70.667 0 129.334 -17.5 176.001 -52.5s74 -85.833 82 -152.5
c-18.667 0 -47 -0.166992 -85 -0.5s-66.667 -0.5 -86 -0.5c-3.33301 20.667 -12.166 36.834 -26.499 48.501s-31.833 17.5 -52.5 17.5c-38.667 0 -67.667 -13 -87 -39s-29 -59.333 -29 -100s8.66699 -74.834 26 -102.501s45 -41.5 83 -41.5c8 0 16 1 24 3
c37.333 8.66699 58.666 37.667 63.999 87c19.333 0 48.166 -0.166992 86.499 -0.5s66.833 -0.5 85.5 -0.5zM455 737l-145 -154h-114l79 154h180z" />
    <glyph glyph-name="Ccaron" unicode="&#x10c;" horiz-adv-x="757" 
d="M726 273c-10.667 -90.667 -45.001 -161.834 -103.001 -213.501s-133 -77.5 -225 -77.5c-111.333 0 -199.666 34.833 -264.999 104.5s-98 160.834 -98 273.501c0 108.667 32.5 198.667 97.5 270s149.5 107 253.5 107c115.333 0 204.333 -37 267 -111
c36 -43.333 58 -98 66 -164h-187c-6 38.667 -21.333 68.5 -46 89.5s-56.667 31.5 -96 31.5c-37.333 0 -68.666 -12.5 -93.999 -37.5s-42.833 -54 -52.5 -87s-14.5 -67.833 -14.5 -104.5c0 -64 13.5 -116.5 40.5 -157.5s69.167 -61.5 126.5 -61.5c16 0 30 3.33301 42 10
c57.333 14 89.666 56.667 96.999 128h191zM568.999 935l-117 -152h-148l-116 152h130l61 -85l60 85h130z" />
    <glyph glyph-name="ccaron" unicode="&#x10d;" horiz-adv-x="612" 
d="M577 201c-6 -62.667 -30 -113 -72 -151c-48 -44 -112.667 -66 -194 -66c-82 0 -148.833 25 -200.5 75s-77.5 115.667 -77.5 197c0 84 25.833 151.5 77.5 202.5s120.167 76.5 205.5 76.5c70.667 0 129.334 -17.5 176.001 -52.5s74 -85.833 82 -152.5
c-18.667 0 -47 -0.166992 -85 -0.5s-66.667 -0.5 -86 -0.5c-3.33301 20.667 -12.166 36.834 -26.499 48.501s-31.833 17.5 -52.5 17.5c-38.667 0 -67.667 -13 -87 -39s-29 -59.333 -29 -100s8.66699 -74.834 26 -102.501s45 -41.5 83 -41.5c8 0 16 1 24 3
c37.333 8.66699 58.666 37.667 63.999 87c19.333 0 48.166 -0.166992 86.499 -0.5s66.833 -0.5 85.5 -0.5zM496 736l-117 -152h-148l-116 152h130l61 -85l60 85h130z" />
    <glyph glyph-name="Dcaron" unicode="&#x10e;" horiz-adv-x="766" 
d="M730 367c0 -156 -52.668 -263.333 -158.001 -322c-54 -30 -118.333 -45 -193 -45h-308v720h308c112.667 0 199.334 -30.5 260.001 -91.5s91 -148.167 91 -261.5zM535.999 361c0 69.333 -14.333 120.833 -43 154.5s-75.667 50.5 -141 50.5h-88v-413h89
c36.667 0 68 7 94 21c59.333 30.667 89 93 89 187zM542.999 935l-117 -152h-148l-116 152h130l61 -85l60 85h130z" />
    <glyph glyph-name="dcaron" unicode="&#x10f;" horiz-adv-x="888" 
d="M587 0h-158.999v65c-21.333 -29.333 -44.5 -50.166 -69.5 -62.499s-55.5 -18.5 -91.5 -18.5c-76.667 0 -136.334 28.667 -179.001 86c-36.667 50 -55 112 -55 186c0 83.333 20.833 150.666 62.5 201.999s96.167 77 163.5 77c65.333 0 117.333 -23.667 156 -71v256h172
v-720zM418.001 261c0 41.333 -9.00098 74.999 -27.001 100.999s-44.667 39 -80 39c-34 0 -59.833 -13.5 -77.5 -40.5s-26.5 -61.167 -26.5 -102.5s8.66699 -75.166 26 -101.499s43 -39.5 77 -39.5c34.667 0 61.334 13.5 80.001 40.5s28 61.5 28 103.5zM848 590.999
c0 -4.66699 -0.164062 -11.499 -0.49707 -20.499s-0.5 -15.5 -0.5 -19.5c-0.666992 -46.667 -12.334 -84 -35.001 -112c-34 -44.667 -82.667 -68.334 -146 -71.001v79c29.333 4.66699 51.666 17.667 66.999 39c9.33301 15.333 14.666 34 15.999 56h-85v181h184v-132z" />
    <glyph glyph-name="Dcroat" unicode="&#x110;" horiz-adv-x="768" 
d="M71 439l-0.000976562 281h308c112.667 0 199.334 -30.5 260.001 -91.5s91 -148.167 91 -261.5c0 -156 -52.667 -263.333 -158 -322c-54 -30 -118.333 -45 -193 -45h-308v305h-70v134h70zM392.999 305h-129v-152h89c36.667 0 68 7 94 21c59.333 30.667 89 93 89 187
c0 69.333 -14.333 120.833 -43 154.5s-75.667 50.5 -141 50.5h-88v-127h129v-134z" />
    <glyph glyph-name="dcroat" unicode="&#x111;" horiz-adv-x="644" 
d="M650 566h-62.999v-566h-159v65c-21.333 -29.333 -44.5 -50.166 -69.5 -62.499s-55.5 -18.5 -91.5 -18.5c-76.667 0 -136.334 28.667 -179.001 86c-36.667 50 -55 112 -55 186c0 83.333 20.833 150.666 62.5 201.999s96.167 77 163.5 77c65.333 0 117.333 -23.667 156 -71
v102h-159v93h159v61h172v-61h63v-93zM418.001 261c0 41.333 -9.00098 74.999 -27.001 100.999s-44.667 39 -80 39c-34 0 -59.833 -13.5 -77.5 -40.5s-26.5 -61.167 -26.5 -102.5s8.66699 -75.166 26 -101.499s43 -39.5 77 -39.5c34.667 0 61.334 13.5 80.001 40.5
s28 61.5 28 103.5z" />
    <glyph glyph-name="Eogonek" unicode="&#x118;" horiz-adv-x="704" 
d="M660 -174c-31.333 -9.33301 -67.332 -14.001 -107.999 -14.001c-38 0 -69.667 8.16699 -95 24.5s-38 39.166 -38 68.499c0 36.667 21.667 68.334 65 95.001h-409v720h574v-154h-381v-130h335v-143h-335v-140h392v-153c-19.333 -0.666992 -38 -6.16699 -56 -16.5
s-27 -25.166 -27 -44.499c0 -22.667 14.333 -34 43 -34c13.333 0 26.666 2 39.999 6v-85z" />
    <glyph glyph-name="eogonek" unicode="&#x119;" horiz-adv-x="629" 
d="M590 217l-382.994 0.00488281c1.33301 -34 12.666 -61.833 33.999 -83.5s49 -32.5 83 -32.5c44.667 0 75 19.333 91 58h168c-10.667 -41.333 -32 -77 -64 -107c-2 -2 -8.83301 -8.33301 -20.5 -19l-26 -24c-5.66699 -5.33301 -12.834 -12.833 -21.501 -22.5
s-14.834 -18.334 -18.501 -26.001s-5.5 -14.834 -5.5 -21.501c0 -22.667 14.333 -34 43 -34c13.333 0 26.666 2 39.999 6v-85c-31.333 -9.33301 -67.333 -14 -108 -14c-38 0 -69.667 8.16699 -95 24.5s-38 39.166 -38 68.499c0 27.333 13.667 53.666 41 78.999
c-82.667 0.666992 -149.334 26 -200.001 76s-76 116.333 -76 199c0 81.333 25.833 147.666 77.5 198.999s118.167 77 199.5 77c111.333 0 191.666 -44.333 240.999 -133c25.333 -45.333 38 -107 38 -185zM420.006 315.005c-1.33301 29.333 -11.668 54 -31.001 74
s-43.666 30 -72.999 30c-32 0 -57.5 -9.33301 -76.5 -28s-29.5 -44 -31.5 -76h212z" />
    <glyph glyph-name="Ecaron" unicode="&#x11a;" horiz-adv-x="704" 
d="M660 0h-585v720h574v-154h-381v-130h335v-143h-335v-140h392v-153zM542 935l-117 -152h-148l-116 152h130l61 -85l60 85h130z" />
    <glyph glyph-name="ecaron" unicode="&#x11b;" horiz-adv-x="629" 
d="M590 217l-382.999 0.000976562c1.33301 -34 12.666 -61.833 33.999 -83.5s49 -32.5 83 -32.5c44.667 0 75 19.333 91 58h168c-10.667 -41.333 -32 -77 -64 -107c-49.333 -45.333 -118 -68 -206 -68c-83.333 0 -150.666 25 -201.999 75s-77 116.667 -77 200
c0 81.333 25.833 147.666 77.5 198.999s118.167 77 199.5 77c111.333 0 191.666 -44.333 240.999 -133c25.333 -45.333 38 -107 38 -185zM420.001 315.001c-1.33301 29.333 -11.668 54 -31.001 74s-43.666 30 -72.999 30c-32 0 -57.5 -9.33301 -76.5 -28
s-29.5 -44 -31.5 -76h212zM504.999 736.001l-117 -152h-148l-116 152h130l61 -85l60 85h130z" />
    <glyph glyph-name="Lacute" unicode="&#x139;" horiz-adv-x="624" 
d="M601 0h-527v720h193v-567h334v-153zM361 936l-145 -154h-114l79 154h180z" />
    <glyph glyph-name="lacute" unicode="&#x13a;" horiz-adv-x="298" 
d="M235 0h-173v721h173v-721zM309 902l-145 -154h-114l79 154h180z" />
    <glyph glyph-name="Lcaron" unicode="&#x13d;" horiz-adv-x="624" 
d="M601 0h-527v720h193v-567h334v-153zM546 591c0 -4.66699 -0.164062 -11.499 -0.49707 -20.499s-0.5 -15.5 -0.5 -19.5c-0.666992 -46.667 -12.334 -84 -35.001 -112c-34 -44.667 -82.667 -68.334 -146 -71.001v79c29.333 4.66699 51.666 17.667 66.999 39
c9.33301 15.333 14.666 34 15.999 56h-85v181h184v-132z" />
    <glyph glyph-name="lcaron" unicode="&#x13e;" horiz-adv-x="537" 
d="M235 0h-173v721h173v-721zM492 588c0 -4.66699 -0.164062 -11.499 -0.49707 -20.499s-0.5 -15.5 -0.5 -19.5c-0.666992 -46.667 -12.334 -84 -35.001 -112c-34 -44.667 -82.667 -68.334 -146 -71.001v79c29.333 4.66699 51.666 17.667 66.999 39
c9.33301 15.333 14.666 34 15.999 56h-85v181h184v-132z" />
    <glyph glyph-name="Lslash" unicode="&#x141;" horiz-adv-x="633" 
d="M613 0h-527v282l-79 -31v135l79 31v303h193v-229l192 76v-135l-192 -76v-203h334v-153z" />
    <glyph glyph-name="lslash" unicode="&#x142;" horiz-adv-x="341" 
d="M331 421l-73 -40v-381h-173v285l-71 -39v135l71 39v301h173v-205l73 40v-135z" />
    <glyph glyph-name="Nacute" unicode="&#x143;" horiz-adv-x="790" 
d="M720 0h-191.999l-135.5 215.5l-136.5 215.5h-1c1.33301 -94 2.66602 -237.667 3.99902 -431h-188v720h190l273 -435l-3 435h189v-720zM544.001 936l-145 -154h-114l79 154h180z" />
    <glyph glyph-name="nacute" unicode="&#x144;" horiz-adv-x="636" 
d="M578 0h-172v303c0 26.667 -6.83301 48.5 -20.5 65.5s-33.167 25.5 -58.5 25.5c-65.333 0 -98 -40.667 -98 -122v-272h-173v521h160v-80c23.333 32.667 48.333 56.5 75 71.5s59 22.5 97 22.5c126.667 0 190 -69 190 -207v-328zM477 737l-145 -154h-114l79 154h180z" />
    <glyph glyph-name="Ncaron" unicode="&#x147;" horiz-adv-x="790" 
d="M720 0h-191.999l-135.5 215.5l-136.5 215.5h-1c1.33301 -94 2.66602 -237.667 3.99902 -431h-188v720h190l273 -435l-3 435h189v-720zM585.001 935l-117 -152h-148l-116 152h130l61 -85l60 85h130z" />
    <glyph glyph-name="ncaron" unicode="&#x148;" horiz-adv-x="636" 
d="M578 0h-172v303c0 26.667 -6.83301 48.5 -20.5 65.5s-33.167 25.5 -58.5 25.5c-65.333 0 -98 -40.667 -98 -122v-272h-173v521h160v-80c23.333 32.667 48.333 56.5 75 71.5s59 22.5 97 22.5c126.667 0 190 -69 190 -207v-328zM508 736l-117 -152h-148l-116 152h130
l61 -85l60 85h130z" />
    <glyph glyph-name="Ohungarumlaut" unicode="&#x150;" horiz-adv-x="810" 
d="M771 360c0 -67.333 -12.332 -127.667 -36.999 -181s-59.334 -96.333 -104.001 -129c-60.667 -45.333 -135.667 -68 -225 -68c-100.667 0 -183 28.333 -247 85c-78.667 69.333 -118 168 -118 296c0 111.333 33.333 201.5 100 270.5s155 103.5 265 103.5
c114 0 203.5 -35.667 268.5 -107s97.5 -161.333 97.5 -270zM576.001 359.999c0 64 -15 117.334 -45 160.001s-72 64 -126 64h-1c-54.667 0 -96.667 -21.333 -126 -64s-44 -96 -44 -160s14.667 -117.5 44 -160.5s71.666 -64.5 126.999 -64.5
c54.667 0 96.834 20.667 126.501 62s44.5 95.666 44.5 162.999zM662.001 937l-134 -152h-94l74 152h154zM456.001 937l-134 -152h-94l74 152h154z" />
    <glyph glyph-name="ohungarumlaut" unicode="&#x151;" horiz-adv-x="633" 
d="M597 261c0 -85.333 -26 -153 -78 -203s-120 -75 -204 -75c-83.333 0 -150.833 24.833 -202.5 74.5s-77.5 116.5 -77.5 200.5s25.5 151.167 76.5 201.5s118.5 75.5 202.5 75.5c86 0 154.667 -25.167 206 -75.5s77 -116.5 77 -198.5zM422 261
c0 47.333 -9.33301 84.5 -28 111.5s-44.667 40.5 -78 40.5c-34.667 0 -61.167 -13.833 -79.5 -41.5s-27.5 -64.5 -27.5 -110.5c0 -50.667 9.33301 -89 28 -115s44.667 -39 78 -39c34 0 60.333 13 79 39s28 64.333 28 115zM593 738l-134 -152h-94l74 152h154zM387 738
l-134 -152h-94l74 152h154z" />
    <glyph glyph-name="Racute" unicode="&#x154;" horiz-adv-x="750" 
d="M720 0h-201c-7.33301 20 -11.666 56.333 -12.999 109c-2 52.667 -8 88.334 -18 107.001c-8.66699 17.333 -22.334 29.666 -41.001 36.999s-45 11 -79 11h-105v-264h-193v720h342c192.667 0 289 -68.333 289 -205c0 -88.667 -40.667 -148 -122 -178
c46.667 -16 78 -42.333 94 -79c9.33301 -22.667 14.666 -54 15.999 -94c0.666992 -13.333 2.33398 -33.333 5.00098 -60c3.33301 -36 12 -70.667 26 -104zM511 486c0 56.667 -36.666 85 -109.999 85h-138v-169h134c27.333 0 53.166 7.5 77.499 22.5s36.5 35.5 36.5 61.5z
M504.001 936l-145 -154h-114l79 154h180z" />
    <glyph glyph-name="racute" unicode="&#x155;" horiz-adv-x="424" 
d="M410 368c-13.333 2.66699 -27.667 4 -43 4c-91.333 0 -137 -53.667 -137 -161v-211h-173v521h158v-92h1c20 37.333 42.333 64 67 80s57 24 97 24c10 0 20 -1.33301 30 -4v-161zM340.999 737l-145 -154h-114l79 154h180z" />
    <glyph glyph-name="Rcaron" unicode="&#x158;" horiz-adv-x="750" 
d="M720 0h-201c-7.33301 20 -11.666 56.333 -12.999 109c-2 52.667 -8 88.334 -18 107.001c-8.66699 17.333 -22.334 29.666 -41.001 36.999s-45 11 -79 11h-105v-264h-193v720h342c192.667 0 289 -68.333 289 -205c0 -88.667 -40.667 -148 -122 -178
c46.667 -16 78 -42.333 94 -79c9.33301 -22.667 14.666 -54 15.999 -94c0.666992 -13.333 2.33398 -33.333 5.00098 -60c3.33301 -36 12 -70.667 26 -104zM511 486c0 56.667 -36.666 85 -109.999 85h-138v-169h134c27.333 0 53.166 7.5 77.499 22.5s36.5 35.5 36.5 61.5z
M545.001 935l-117 -152h-148l-116 152h130l61 -85l60 85h130z" />
    <glyph glyph-name="rcaron" unicode="&#x159;" horiz-adv-x="424" 
d="M410 368c-13.333 2.66699 -27.667 4 -43 4c-91.333 0 -137 -53.667 -137 -161v-211h-173v521h158v-92h1c20 37.333 42.333 64 67 80s57 24 97 24c10 0 20 -1.33301 30 -4v-161zM401.999 736l-117 -152h-148l-116 152h130l61 -85l60 85h130z" />
    <glyph glyph-name="Sacute" unicode="&#x15a;" horiz-adv-x="701" 
d="M667 220c0 -72.667 -28.6641 -130.335 -85.9971 -173.002c-56.667 -43.333 -134.334 -65 -233.001 -65c-85.333 0 -157.833 20.833 -217.5 62.5s-92.167 103.167 -97.5 184.5h190c2.66699 -30.667 16.667 -55.5 42 -74.5s55.333 -28.5 90 -28.5
c18 0 35.333 1.83301 52 5.5s32.167 11.334 46.5 23.001s21.5 26.5 21.5 44.5c0 6 -1 11.667 -3 17s-5.16699 10.166 -9.5 14.499s-8.66602 8.33301 -12.999 12s-10.333 7.33398 -18 11.001s-14.167 6.66699 -19.5 9s-12.833 5 -22.5 8s-16.834 5.16699 -21.501 6.5
s-12.334 3.33301 -23.001 6s-17.667 4.33398 -21 5.00098c-89.333 23.333 -151 45.666 -185 66.999c-57.333 36.667 -86 89.667 -86 159c0 55.333 18.333 102.333 55 141c54 54.667 134 82 240 82c113.333 0 194.666 -31.667 243.999 -95
c26.667 -33.333 43 -77.666 49 -132.999h-187c-4 28 -16.833 49 -38.5 63s-47.167 21 -76.5 21c-24 0 -46 -5.16699 -66 -15.5s-30 -26.5 -30 -48.5c0 -17.333 8.33301 -30.833 25 -40.5s45 -20.167 85 -31.5l69 -18c49.333 -12.667 85 -23.667 107 -33
c92 -38 138 -100 138 -186zM508.003 935.999l-145 -154h-114l79 154h180z" />
    <glyph glyph-name="sacute" unicode="&#x15b;" horiz-adv-x="568" 
d="M539 159c0 -57.333 -23.999 -100.83 -71.999 -130.497s-110 -44.5 -186 -44.5c-112 0 -187.667 30.667 -227 92c-16 25.333 -24.333 54.666 -25 87.999h166c1.33301 -23.333 11.166 -41.833 29.499 -55.5s39.5 -20.5 63.5 -20.5c19.333 0 37.166 4.66699 53.499 14
s24.5 23 24.5 41c0 20 -16 35 -48 45c-16.667 5.33301 -41.167 11.166 -73.5 17.499s-51.166 10.166 -56.499 11.499c-98 22.667 -147 73 -147 151c0 38 12.167 70 36.5 96s53.833 44.333 88.5 55s72.667 16 114 16c105.333 0 176 -26 212 -78
c16 -23.333 25.333 -52.333 28 -87h-162c-2.66699 18.667 -11 33.5 -25 44.5s-31 16.5 -51 16.5c-18 0 -34.667 -3.83301 -50 -11.5s-23 -19.5 -23 -35.5c0 -23.333 26.667 -40 80 -50c88.667 -16.667 147 -33 175 -49c50 -28.667 75 -70.667 75 -126zM443.001 737.003
l-145 -154h-114l79 154h180z" />
    <glyph glyph-name="Scaron" unicode="&#x160;" horiz-adv-x="701" 
d="M667 220c0 -72.667 -28.6641 -130.335 -85.9971 -173.002c-56.667 -43.333 -134.334 -65 -233.001 -65c-85.333 0 -157.833 20.833 -217.5 62.5s-92.167 103.167 -97.5 184.5h190c2.66699 -30.667 16.667 -55.5 42 -74.5s55.333 -28.5 90 -28.5
c18 0 35.333 1.83301 52 5.5s32.167 11.334 46.5 23.001s21.5 26.5 21.5 44.5c0 6 -1 11.667 -3 17s-5.16699 10.166 -9.5 14.499s-8.66602 8.33301 -12.999 12s-10.333 7.33398 -18 11.001s-14.167 6.66699 -19.5 9s-12.833 5 -22.5 8s-16.834 5.16699 -21.501 6.5
s-12.334 3.33301 -23.001 6s-17.667 4.33398 -21 5.00098c-89.333 23.333 -151 45.666 -185 66.999c-57.333 36.667 -86 89.667 -86 159c0 55.333 18.333 102.333 55 141c54 54.667 134 82 240 82c113.333 0 194.666 -31.667 243.999 -95
c26.667 -33.333 43 -77.666 49 -132.999h-187c-4 28 -16.833 49 -38.5 63s-47.167 21 -76.5 21c-24 0 -46 -5.16699 -66 -15.5s-30 -26.5 -30 -48.5c0 -17.333 8.33301 -30.833 25 -40.5s45 -20.167 85 -31.5l69 -18c49.333 -12.667 85 -23.667 107 -33
c92 -38 138 -100 138 -186zM541.003 934.999l-117 -152h-148l-116 152h130l61 -85l60 85h130z" />
    <glyph glyph-name="scaron" unicode="&#x161;" horiz-adv-x="568" 
d="M539 159c0 -57.333 -23.999 -100.83 -71.999 -130.497s-110 -44.5 -186 -44.5c-112 0 -187.667 30.667 -227 92c-16 25.333 -24.333 54.666 -25 87.999h166c1.33301 -23.333 11.166 -41.833 29.499 -55.5s39.5 -20.5 63.5 -20.5c19.333 0 37.166 4.66699 53.499 14
s24.5 23 24.5 41c0 20 -16 35 -48 45c-16.667 5.33301 -41.167 11.166 -73.5 17.499s-51.166 10.166 -56.499 11.499c-98 22.667 -147 73 -147 151c0 38 12.167 70 36.5 96s53.833 44.333 88.5 55s72.667 16 114 16c105.333 0 176 -26 212 -78
c16 -23.333 25.333 -52.333 28 -87h-162c-2.66699 18.667 -11 33.5 -25 44.5s-31 16.5 -51 16.5c-18 0 -34.667 -3.83301 -50 -11.5s-23 -19.5 -23 -35.5c0 -23.333 26.667 -40 80 -50c88.667 -16.667 147 -33 175 -49c50 -28.667 75 -70.667 75 -126zM474.001 736.003
l-117 -152h-148l-116 152h130l61 -85l60 85h130z" />
    <glyph glyph-name="Tcommaaccent" unicode="&#x162;" horiz-adv-x="662" 
d="M645 559h-217v-559h-193v559h-217v161h627v-161zM415 -127c0 -4 -0.166992 -9.16895 -0.5 -15.502s-0.5 -10.833 -0.5 -13.5c-0.666992 -33.333 -10.667 -60.666 -30 -81.999c-32.667 -37.333 -78 -56.666 -136 -57.999v54c30 4 52 14.667 66 32
c9.33301 11.333 15 26 17 44h-84v126h168v-87z" />
    <glyph glyph-name="tcommaaccent" unicode="&#x163;" horiz-adv-x="387" 
d="M351 -1c-43.333 -4 -81.667 -6 -115 -6h-4c-68.667 0 -114 22.667 -136 68c-6.66699 14.667 -10.667 33.667 -12 57c-0.666992 18 -1 44.333 -1 79v218h-75v106h75v161h173v-161h95v-106h-95v-230c0 -22 4 -37.167 12 -45.5s23 -12.5 45 -12.5c16 0 28.667 0.666992 38 2
v-130zM276.999 -127c0 -4 -0.166992 -9.16895 -0.5 -15.502s-0.5 -10.833 -0.5 -13.5c-0.666992 -33.333 -10.667 -60.666 -30 -81.999c-32.667 -37.333 -78 -56.666 -136 -57.999v54c30 4 52 14.667 66 32c9.33301 11.333 15 26 17 44h-84v126h168v-87z" />
    <glyph glyph-name="Tcaron" unicode="&#x164;" horiz-adv-x="662" 
d="M645 559h-217v-559h-193v559h-217v161h627v-161zM521 935l-117 -152h-148l-116 152h130l61 -85l60 85h130z" />
    <glyph glyph-name="tcaron" unicode="&#x165;" horiz-adv-x="623" 
d="M351 -1c-43.333 -4 -81.667 -6 -115 -6h-4c-68.667 0 -114 22.667 -136 68c-6.66699 14.667 -10.667 33.667 -12 57c-0.666992 18 -1 44.333 -1 79v218h-75v106h75v161h173v-161h95v-106h-95v-230c0 -22 4 -37.167 12 -45.5s23 -12.5 45 -12.5c16 0 28.667 0.666992 38 2
v-130zM583.999 590c0 -4.66699 -0.164062 -11.499 -0.49707 -20.499s-0.5 -15.5 -0.5 -19.5c-0.666992 -46.667 -12.334 -84 -35.001 -112c-34 -44.667 -82.667 -68.334 -146 -71.001v79c29.333 4.66699 51.666 17.667 66.999 39c9.33301 15.333 14.666 34 15.999 56h-85
v181h184v-132z" />
    <glyph glyph-name="Uring" unicode="&#x16e;" horiz-adv-x="788" 
d="M720 297c0 -86 -16.332 -153.331 -48.999 -201.998c-50.667 -75.333 -142.334 -113 -275.001 -113c-144.667 0 -241 43.667 -289 131c-25.333 45.333 -38 110.666 -38 195.999v411h194v-447c0 -40 12.167 -73 36.5 -99s56.5 -39 96.5 -39c42 0 74.167 12.167 96.5 36.5
s33.5 58.166 33.5 101.499v447h194v-423zM520.001 827.002c0 -34.667 -12.333 -64.333 -37 -89s-54.334 -37 -89.001 -37s-64.5 12.333 -89.5 37s-37.5 54.667 -37.5 90c0 34.667 12.5 64.5 37.5 89.5s54.833 37.5 89.5 37.5s64.334 -12.5 89.001 -37.5s37 -55.167 37 -90.5
zM453.001 828.003c0 16 -5.66699 29.833 -17 41.5s-25.333 17.5 -42 17.5c-16 0 -29.833 -5.83301 -41.5 -17.5s-17.5 -25.5 -17.5 -41.5s5.83301 -30 17.5 -42s25.5 -18 41.5 -18s29.833 6 41.5 18s17.5 26 17.5 42z" />
    <glyph glyph-name="uring" unicode="&#x16f;" horiz-adv-x="636" 
d="M578 0l-160.001 -0.000976562v76c-24 -33.333 -49.5 -57 -76.5 -71s-60.167 -21 -99.5 -21c-87.333 0 -143.666 33.667 -168.999 101c-12 30.667 -18 70.667 -18 120v316h174v-296c0 -28.667 6.33301 -52.667 19 -72s32.667 -29 60 -29c32.667 0 57 12.833 73 38.5
s24 55.834 24 90.501v268h173v-521zM443.999 657.999c0 -34.667 -12.333 -64.333 -37 -89s-54.334 -37 -89.001 -37s-64.5 12.333 -89.5 37s-37.5 54.667 -37.5 90c0 34.667 12.5 64.5 37.5 89.5s54.833 37.5 89.5 37.5s64.334 -12.5 89.001 -37.5s37 -55.167 37 -90.5z
M376.999 659c0 16 -5.66699 29.833 -17 41.5s-25.333 17.5 -42 17.5c-16 0 -29.833 -5.83301 -41.5 -17.5s-17.5 -25.5 -17.5 -41.5s5.83301 -30 17.5 -42s25.5 -18 41.5 -18s29.833 6 41.5 18s17.5 26 17.5 42z" />
    <glyph glyph-name="Uhungarumlaut" unicode="&#x170;" horiz-adv-x="788" 
d="M720 297c0 -86 -16.332 -153.331 -48.999 -201.998c-50.667 -75.333 -142.334 -113 -275.001 -113c-144.667 0 -241 43.667 -289 131c-25.333 45.333 -38 110.666 -38 195.999v411h194v-447c0 -40 12.167 -73 36.5 -99s56.5 -39 96.5 -39c42 0 74.167 12.167 96.5 36.5
s33.5 58.166 33.5 101.499v447h194v-423zM661.001 937.002l-134 -152h-94l74 152h154zM455.001 937.002l-134 -152h-94l74 152h154z" />
    <glyph glyph-name="uhungarumlaut" unicode="&#x171;" horiz-adv-x="636" 
d="M578 0l-160.001 -0.000976562v76c-24 -33.333 -49.5 -57 -76.5 -71s-60.167 -21 -99.5 -21c-87.333 0 -143.666 33.667 -168.999 101c-12 30.667 -18 70.667 -18 120v316h174v-296c0 -28.667 6.33301 -52.667 19 -72s32.667 -29 60 -29c32.667 0 57 12.833 73 38.5
s24 55.834 24 90.501v268h173v-521zM582.999 737.999l-134 -152h-94l74 152h154zM376.999 737.999l-134 -152h-94l74 152h154z" />
    <glyph glyph-name="Zacute" unicode="&#x179;" horiz-adv-x="677" 
d="M650 0h-619v154l356 412h-336v154h584v-145l-367 -422h382v-153zM488 936l-145 -154h-114l79 154h180z" />
    <glyph glyph-name="zacute" unicode="&#x17a;" horiz-adv-x="539" 
d="M508 0h-484v122l255 266h-234v133h452v-123l-254 -267h265v-131zM429 737l-145 -154h-114l79 154h180z" />
    <glyph glyph-name="Zdotaccent" unicode="&#x17b;" horiz-adv-x="677" 
d="M650 0h-619v154l356 412h-336v154h584v-145l-367 -422h382v-153zM425 791h-174v133h174v-133z" />
    <glyph glyph-name="zdotaccent" unicode="&#x17c;" horiz-adv-x="539" 
d="M508 0h-484v122l255 266h-234v133h452v-123l-254 -267h265v-131zM356 592h-174v133h174v-133z" />
    <glyph glyph-name="Zcaron" unicode="&#x17d;" horiz-adv-x="677" 
d="M650 0h-619v154l356 412h-336v154h584v-145l-367 -422h382v-153zM529 935l-117 -152h-148l-116 152h130l61 -85l60 85h130z" />
    <glyph glyph-name="zcaron" unicode="&#x17e;" horiz-adv-x="539" 
d="M508 0h-484v122l255 266h-234v133h452v-123l-254 -267h265v-131zM460 736l-117 -152h-148l-116 152h130l61 -85l60 85h130z" />
    <glyph glyph-name="Scommaaccent" unicode="&#x218;" horiz-adv-x="701" 
d="M667 220c0 -72.667 -28.6641 -130.335 -85.9971 -173.002c-56.667 -43.333 -134.334 -65 -233.001 -65c-85.333 0 -157.833 20.833 -217.5 62.5s-92.167 103.167 -97.5 184.5h190c2.66699 -30.667 16.667 -55.5 42 -74.5s55.333 -28.5 90 -28.5
c18 0 35.333 1.83301 52 5.5s32.167 11.334 46.5 23.001s21.5 26.5 21.5 44.5c0 6 -1 11.667 -3 17s-5.16699 10.166 -9.5 14.499s-8.66602 8.33301 -12.999 12s-10.333 7.33398 -18 11.001s-14.167 6.66699 -19.5 9s-12.833 5 -22.5 8s-16.834 5.16699 -21.501 6.5
s-12.334 3.33301 -23.001 6s-17.667 4.33398 -21 5.00098c-89.333 23.333 -151 45.666 -185 66.999c-57.333 36.667 -86 89.667 -86 159c0 55.333 18.333 102.333 55 141c54 54.667 134 82 240 82c113.333 0 194.666 -31.667 243.999 -95
c26.667 -33.333 43 -77.666 49 -132.999h-187c-4 28 -16.833 49 -38.5 63s-47.167 21 -76.5 21c-24 0 -46 -5.16699 -66 -15.5s-30 -26.5 -30 -48.5c0 -17.333 8.33301 -30.833 25 -40.5s45 -20.167 85 -31.5l69 -18c49.333 -12.667 85 -23.667 107 -33
c92 -38 138 -100 138 -186zM434.003 -127.001c0 -4 -0.166992 -9.16895 -0.5 -15.502s-0.5 -10.833 -0.5 -13.5c-0.666992 -33.333 -10.667 -60.666 -30 -81.999c-32.667 -37.333 -78 -56.666 -136 -57.999v54c30 4 52 14.667 66 32c9.33301 11.333 15 26 17 44h-84v126h168
v-87z" />
    <glyph glyph-name="scommaaccent" unicode="&#x219;" horiz-adv-x="568" 
d="M539 159c0 -57.333 -23.999 -100.83 -71.999 -130.497s-110 -44.5 -186 -44.5c-112 0 -187.667 30.667 -227 92c-16 25.333 -24.333 54.666 -25 87.999h166c1.33301 -23.333 11.166 -41.833 29.499 -55.5s39.5 -20.5 63.5 -20.5c19.333 0 37.166 4.66699 53.499 14
s24.5 23 24.5 41c0 20 -16 35 -48 45c-16.667 5.33301 -41.167 11.166 -73.5 17.499s-51.166 10.166 -56.499 11.499c-98 22.667 -147 73 -147 151c0 38 12.167 70 36.5 96s53.833 44.333 88.5 55s72.667 16 114 16c105.333 0 176 -26 212 -78
c16 -23.333 25.333 -52.333 28 -87h-162c-2.66699 18.667 -11 33.5 -25 44.5s-31 16.5 -51 16.5c-18 0 -34.667 -3.83301 -50 -11.5s-23 -19.5 -23 -35.5c0 -23.333 26.667 -40 80 -50c88.667 -16.667 147 -33 175 -49c50 -28.667 75 -70.667 75 -126zM368.001 -126.997
c0 -4 -0.166992 -9.16895 -0.5 -15.502s-0.5 -10.833 -0.5 -13.5c-0.666992 -33.333 -10.667 -60.666 -30 -81.999c-32.667 -37.333 -78 -56.666 -136 -57.999v54c30 4 52 14.667 66 32c9.33301 11.333 15 26 17 44h-84v126h168v-87z" />
    <glyph glyph-name="caron" unicode="&#x2c7;" horiz-adv-x="397" 
d="M390 736l-117 -152h-148l-116 152h130l61 -85l60 85h130z" />
    <glyph glyph-name="breve" unicode="&#x2d8;" horiz-adv-x="397" 
d="M372 736c-5.33301 -48 -23.666 -85.001 -54.999 -111.001s-71.333 -39 -120 -39c-49.333 0 -89.333 12.833 -120 38.5s-48 62.834 -52 111.501h84c7.33301 -42 37.666 -63 90.999 -63c50 0 79.333 21 88 63h84z" />
    <glyph glyph-name="dotaccent" unicode="&#x2d9;" horiz-adv-x="298" 
d="M235 592h-174v133h174v-133z" />
    <glyph glyph-name="ogonek" unicode="&#x2db;" horiz-adv-x="397" 
d="M345 -174c-31.333 -9.33301 -67.332 -13.999 -107.999 -13.999c-38 0 -69.667 8.16699 -95 24.5s-38 39.166 -38 68.499c0 22 8.5 43 25.5 63s38.833 36.333 65.5 49c8.66699 -0.666992 31.167 -2.5 67.5 -5.5s58.5 -4.5 66.5 -4.5c-0.666992 0 -5.5 -2.66699 -14.5 -8
s-16.833 -10.333 -23.5 -15s-13.167 -11.167 -19.5 -19.5s-9.5 -16.833 -9.5 -25.5c0 -22.667 14.333 -34 43 -34c13.333 0 26.666 2 39.999 6v-85z" />
    <glyph glyph-name="hungarumlaut" unicode="&#x2dd;" horiz-adv-x="384" 
d="M451 738l-134 -152h-94l74 152h154zM245 738l-134 -152h-94l74 152h154z" />
    <glyph glyph-name="endash" unicode="&#x2013;" horiz-adv-x="565" 
d="M551 198h-541v135h541v-135z" />
    <glyph glyph-name="emdash" unicode="&#x2014;" horiz-adv-x="965" 
d="M966 198h-970v135h970v-135z" />
    <glyph glyph-name="quoteleft" unicode="&#x2018;" horiz-adv-x="277" 
d="M221 407l-161 0.000976562v142c0 53.333 14.667 96.666 44 129.999s68.333 52.333 117 57v-69c-26.667 -8 -46 -20.667 -58 -38c-8.66699 -13.333 -13.667 -33.333 -15 -60h73v-162z" />
    <glyph glyph-name="quoteright" unicode="&#x2019;" horiz-adv-x="277" 
d="M214 584c0 -53.333 -14 -96.666 -42 -129.999s-66 -52 -114 -56v72c43.333 9.33301 67 39.666 71 90.999h-71v159h156v-136z" />
    <glyph glyph-name="quotesinglbase" unicode="&#x201a;" horiz-adv-x="277" 
d="M215 19c0 -52 -14.332 -94.333 -42.999 -127s-66.667 -51.334 -114 -56.001v73c27.333 6 45.666 17.667 54.999 35c8.66699 14.667 14 33.334 16 56.001h-71v158h157v-139z" />
    <glyph glyph-name="quotedblleft" unicode="&#x201c;" horiz-adv-x="484" 
d="M438 407l-160 -0.00195312v136c0 56.667 14.333 101.834 43 135.501s67.667 52.834 117 57.501v-69c-22.667 -6.66699 -41.667 -20.667 -57 -42c-8.66699 -12 -14 -30.667 -16 -56h73v-162zM212 406.998l-161.001 0.000976562v142c0 53.333 14.667 96.666 44 129.999
s68.333 52.333 117 57v-69c-24 -7.33301 -43 -21 -57 -41c-9.33301 -13.333 -14.666 -32.333 -15.999 -57h73v-162z" />
    <glyph glyph-name="quotedblright" unicode="&#x201d;" horiz-adv-x="484" 
d="M434 574c0 -52.667 -14.5 -95.667 -43.5 -129s-67.833 -52.333 -116.5 -57v69c8.66699 3.33301 19 9.33301 31 18s20.333 16.667 25 24c10 15.333 15.333 34 16 56h-72v163h160v-144zM207 578c0 -54.667 -14.333 -98.6689 -43 -132.002s-67.667 -52.666 -117 -57.999v69
c8 2.66699 18 8.5 30 17.5s20.667 17.167 26 24.5c10.667 14.667 16 33.334 16 56.001h-72v163h160v-140z" />
    <glyph glyph-name="quotedblbase" unicode="&#x201e;" horiz-adv-x="484" 
d="M434 18c0 -52.667 -14.667 -95.499 -44 -128.499s-68.333 -51.833 -117 -56.5v74c28 6 47.667 19.667 59 41c7.33301 13.333 12 30.666 14 51.999h-73v162h161v-144zM207 23.001c0 -55.333 -14.333 -99.667 -43 -133s-67.667 -52.333 -117 -57v74
c25.333 5.33301 44 17.666 56 36.999c10 14.667 15.333 33.334 16 56.001h-72v162h160v-139z" />
    <glyph glyph-name="dagger" unicode="&#x2020;" horiz-adv-x="615" 
d="M545 395h-160v-546h-158v546h-161v130h161v193h158v-193h160v-130z" />
    <glyph glyph-name="daggerdbl" unicode="&#x2021;" horiz-adv-x="615" 
d="M545 33h-164v-184h-154v184h-161v129h161v243h-161v130h161v183h154v-183h164v-130h-164v-243h164v-129z" />
    <glyph glyph-name="bullet" unicode="&#x2022;" horiz-adv-x="509" 
d="M416 358c0 -44.667 -15.833 -82.832 -47.5 -114.499s-69.834 -47.5 -114.501 -47.5s-82.834 15.833 -114.501 47.5s-47.5 70.167 -47.5 115.5c0 44.667 15.833 82.667 47.5 114s69.834 47 114.501 47s82.834 -15.833 114.501 -47.5s47.5 -69.834 47.5 -114.501z" />
    <glyph glyph-name="ellipsis" unicode="&#x2026;" horiz-adv-x="1024" 
d="M953 0h-182v182h182v-182zM603 0h-183v182h183v-182zM253 0h-183v182h183v-182z" />
    <glyph glyph-name="perthousand" unicode="&#x2030;" horiz-adv-x="1057" 
d="M1048 148c0 -50.667 -17.333 -91.6689 -52 -123.002c-32.667 -29.333 -70.334 -44 -113.001 -44c-45.333 0 -83.666 16.333 -114.999 49s-47 72.334 -47 119.001s15.833 86.334 47.5 119.001s70.5 49 116.5 49c46.667 0 85.5 -16.167 116.5 -48.5s46.5 -72.5 46.5 -120.5
zM333 570.998c0 -50 -17.333 -91.3359 -52 -124.003c-32.667 -29.333 -70.334 -44 -113.001 -44c-45.333 0 -83.666 16.333 -114.999 49s-47 72.334 -47 119.001s15.833 86.334 47.5 119.001s70.5 49 116.5 49c46.667 0 85.5 -16.167 116.5 -48.5
s46.5 -72.166 46.5 -119.499zM593 732.995l-417 -750h-84l417 750h84zM685 147.995c0 -50.667 -17.333 -91.6689 -52 -123.002c-32.667 -29.333 -70.334 -44 -113.001 -44c-45.333 0 -83.666 16.333 -114.999 49s-47 72.334 -47 119.001s15.833 86.334 47.5 119.001
s70.5 49 116.5 49c46.667 0 85.5 -16.167 116.5 -48.5s46.5 -72.5 46.5 -120.5zM942 148.993c0 18 -5.33301 33.833 -16 47.5s-24.334 20.5 -41.001 20.5s-30.5 -6.66699 -41.5 -20s-16.5 -29.333 -16.5 -48s5.5 -34.667 16.5 -48s24.833 -20 41.5 -20
s30.334 6.66699 41.001 20s16 29.333 16 48zM227 570.993c0 18.667 -5.33301 34.667 -16 48s-24.334 20 -41.001 20s-30.5 -6.66699 -41.5 -20s-16.5 -29.333 -16.5 -48s5.5 -34.5 16.5 -47.5s24.833 -19.5 41.5 -19.5s30.334 6.5 41.001 19.5s16 28.833 16 47.5z
M579 148.993c0 18 -5.33301 33.833 -16 47.5s-24.334 20.5 -41.001 20.5s-30.5 -6.66699 -41.5 -20s-16.5 -29.333 -16.5 -48s5.5 -34.667 16.5 -48s24.833 -20 41.5 -20s30.334 6.66699 41.001 20s16 29.333 16 48z" />
    <glyph glyph-name="guilsinglleft" unicode="&#x2039;" horiz-adv-x="293" 
d="M229 62l-169 125v149l169 128v-134l-47.5 -33.5l-47.5 -34.5l47.5 -35l47.5 -34v-131z" />
    <glyph glyph-name="guilsinglright" unicode="&#x203a;" horiz-adv-x="293" 
d="M233 189l-85 -63.5l-85 -63.5v132l95 70l-47.5 33.5l-47.5 34.5v132l170 -127v-148z" />
    <glyph glyph-name="Euro" unicode="&#x20ac;" 
d="M631 636c-18.667 -60 -32.333 -105 -41 -135c-28.667 48.667 -76.334 73 -143.001 73c-64.667 0 -109 -34 -133 -102h267l-12.5 -48.5l-12.5 -48.5h-260c-2.66699 -18 -3 -33.667 -1 -47h250l-12.5 -48.5l-12.5 -48.5h-210c22 -69.333 68 -104 138 -104
c71.333 0 123.666 19.333 156.999 58v-159c-36.667 -26 -94 -39 -172 -39c-77.333 0 -143.166 21.833 -197.499 65.5s-91.166 103.167 -110.499 178.5h-97l12.5 48.5l12.5 48.5h59c0 26 0.333008 41.667 1 47h-85l12.5 48.5l12.5 48.5h75
c20 75.333 57.167 134.833 111.5 178.5s120.166 65.5 197.499 65.5c78.667 0 143.334 -26.667 194.001 -80z" />
    <glyph glyph-name="trademark" unicode="&#x2122;" horiz-adv-x="951" 
d="M898 308h-97v287h-1c-6.66699 -20.667 -22.667 -67.667 -48 -141l-50 -146h-71c-4 9.33301 -20.167 57 -48.5 143s-44.5 134 -48.5 144h-1v-287h-97v412h145l44 -125.5l43 -125.5l43 126l43 125h144v-412zM385 635h-127v-327h-104v327h-127v85h358v-85z" />
    <glyph glyph-name="lessequal" unicode="&#x2264;" horiz-adv-x="590" 
d="M538 134l-488 214v131l488 214v-142l-338 -138l338 -136v-143zM538 -75l-488 214v136l488 -213v-137z" />
    <glyph glyph-name="greaterequal" unicode="&#x2265;" horiz-adv-x="590" 
d="M539 348l-488 -214v143l338 136l-338 138v142l488 -214v-131zM539 139l-488 -214v137l488 213v-136z" />
    <glyph glyph-name="fi" unicode="&#xfb01;" horiz-adv-x="658" 
d="M349 609c-3.33301 0 -7.83301 0.166992 -13.5 0.5s-9.83398 0.5 -12.501 0.5c-6 0 -13.667 -0.666992 -23 -2c-31.333 -4.66699 -47 -25 -47 -61v-26h95v-106h-95v-415h-173v415h-72v106h73c0 8 0.166992 18.833 0.5 32.5s0.5 21.167 0.5 22.5
c5.33301 102 66.333 153 183 153h19c22.667 0 44.334 -0.666992 65.001 -2v-118zM595 592h-174v133h174v-133zM595 0h-173v521h173v-521z" />
    <glyph glyph-name="fl" unicode="&#xfb02;" horiz-adv-x="658" 
d="M349 609c-3.33301 0 -7.83301 0.166992 -13.5 0.5s-9.83398 0.5 -12.501 0.5c-6 0 -13.667 -0.666992 -23 -2c-31.333 -4.66699 -47 -25 -47 -61v-26h95v-106h-95v-415h-173v415h-72v106h73c0 8 0.166992 18.833 0.5 32.5s0.5 21.167 0.5 22.5
c5.33301 102 66.333 153 183 153h19c22.667 0 44.334 -0.666992 65.001 -2v-118zM595 0h-173v721h173v-721z" />
    <glyph glyph-name=".null" horiz-adv-x="0" 
 />
    <glyph glyph-name="nonmarkingreturn" horiz-adv-x="333" 
 />
  </font>
</defs>
</svg>
